<?xml version="1.0" encoding="UTF-8"?>
<svg width="525px" height="472px" viewBox="0 0 525 472" version="1.1" xmlns="http://www.w3.org/2000/svg" xmlns:xlink="http://www.w3.org/1999/xlink">
    <!-- Generator: Sketch 46.2 (44496) - http://www.bohemiancoding.com/sketch -->
    <title>mockups</title>
    <desc>Created with Sketch.</desc>
    <defs>
        <filter x="-34.8%" y="-8.7%" width="170.2%" height="134.8%" filterUnits="objectBoundingBox" id="filter-1">
            <feOffset dx="0" dy="36" in="SourceAlpha" result="shadowOffsetOuter1"></feOffset>
            <feGaussianBlur stdDeviation="17" in="shadowOffsetOuter1" result="shadowBlurOuter1"></feGaussianBlur>
            <feColorMatrix values="0 0 0 0 0   0 0 0 0 0   0 0 0 0 0  0 0 0 0.2 0" type="matrix" in="shadowBlurOuter1" result="shadowMatrixOuter1"></feColorMatrix>
            <feMerge>
                <feMergeNode in="shadowMatrixOuter1"></feMergeNode>
                <feMergeNode in="SourceGraphic"></feMergeNode>
            </feMerge>
        </filter>
        <linearGradient x1="50%" y1="50%" x2="50%" y2="100%" id="linearGradient-2">
            <stop stop-color="#FFFFFF" offset="0%"></stop>
            <stop stop-color="#FAFBFC" offset="100%"></stop>
        </linearGradient>
        <rect id="path-3" x="0" y="0" width="198" height="402" rx="15"></rect>
        <linearGradient x1="50%" y1="0%" x2="50%" y2="100%" id="linearGradient-5">
            <stop stop-color="#F3F4F6" offset="0%"></stop>
            <stop stop-color="#FFFFFF" offset="100%"></stop>
        </linearGradient>
        <path d="M42.3063469,325.504286 L42.3063469,308.413296 C42.3063469,306.204157 40.5154859,304.413296 38.3063469,304.413296 L11.7177419,304.413296 C9.50860294,304.413296 7.71774194,306.204157 7.71774194,308.413296 L7.71774194,325.242671 C3.29462412,324.210131 5.80197558e-16,320.241959 0,315.504286 L0,10 L0,10 C-6.76353751e-16,4.4771525 4.4771525,1.01453063e-15 10,0 L10,0 L164,0 C169.522847,1.37012913e-14 174,4.4771525 174,10 L174,315.504286 L174,315.504286 C174,321.027134 169.522847,325.504286 164,325.504286 L42.3063469,325.504286 Z M11.7177419,16.1697594 C9.50860294,16.1697594 7.71774194,17.9606204 7.71774194,20.1697594 L7.71774194,46.8828207 C7.71774194,49.0919597 9.50860294,50.8828207 11.7177419,50.8828207 L11.7177419,50.8828207 L38.3063469,50.8828207 C40.5154859,50.8828207 42.3063469,49.0919597 42.3063469,46.8828207 L42.3063469,46.8828207 L42.3063469,20.1697594 C42.3063469,17.9606204 40.5154859,16.1697594 38.3063469,16.1697594 L11.7177419,16.1697594 Z M11.7177419,73.8184666 L11.7177419,73.8184666 C9.50860294,73.8184666 7.71774194,75.6093276 7.71774194,77.8184666 L7.71774194,104.531528 C7.71774194,106.740667 9.50860294,108.531528 11.7177419,108.531528 L38.3063469,108.531528 C40.5154859,108.531528 42.3063469,106.740667 42.3063469,104.531528 L42.3063469,104.531528 L42.3063469,77.8184666 C42.3063469,75.6093276 40.5154859,73.8184666 38.3063469,73.8184666 L11.7177419,73.8184666 Z M11.7177419,131.467174 C9.50860294,131.467174 7.71774194,133.258035 7.71774194,135.467174 L7.71774194,162.180235 C7.71774194,164.389374 9.50860294,166.180235 11.7177419,166.180235 L38.3063469,166.180235 C40.5154859,166.180235 42.3063469,164.389374 42.3063469,162.180235 L42.3063469,135.467174 C42.3063469,133.258035 40.5154859,131.467174 38.3063469,131.467174 L11.7177419,131.467174 Z M11.7177419,189.115881 C9.50860294,189.115881 7.71774194,190.906742 7.71774194,193.115881 L7.71774194,219.828942 C7.71774194,222.038081 9.50860294,223.828942 11.7177419,223.828942 L38.3063469,223.828942 C40.5154859,223.828942 42.3063469,222.038081 42.3063469,219.828942 L42.3063469,219.828942 L42.3063469,193.115881 C42.3063469,190.906742 40.5154859,189.115881 38.3063469,189.115881 L11.7177419,189.115881 Z M11.7177419,246.764588 C9.50860294,246.764588 7.71774194,248.555449 7.71774194,250.764588 L7.71774194,277.47765 C7.71774194,279.686789 9.50860294,281.47765 11.7177419,281.47765 L38.3063469,281.47765 C40.5154859,281.47765 42.3063469,279.686789 42.3063469,277.47765 L42.3063469,277.47765 L42.3063469,250.764588 C42.3063469,248.555449 40.5154859,246.764588 38.3063469,246.764588 L11.7177419,246.764588 Z" id="path-6"></path>
        <filter x="-22.2%" y="-14.2%" width="144.1%" height="156.9%" filterUnits="objectBoundingBox" id="filter-8">
            <feOffset dx="0" dy="36" in="SourceAlpha" result="shadowOffsetOuter1"></feOffset>
            <feGaussianBlur stdDeviation="17" in="shadowOffsetOuter1" result="shadowBlurOuter1"></feGaussianBlur>
            <feColorMatrix values="0 0 0 0 0   0 0 0 0 0   0 0 0 0 0  0 0 0 0.2 0" type="matrix" in="shadowBlurOuter1" result="shadowMatrixOuter1"></feColorMatrix>
            <feMerge>
                <feMergeNode in="shadowMatrixOuter1"></feMergeNode>
                <feMergeNode in="SourceGraphic"></feMergeNode>
            </feMerge>
        </filter>
        <rect id="path-9" x="0" y="0" width="315" height="246" rx="18"></rect>
    </defs>
    <g id="Page-1" stroke="none" stroke-width="1" fill="none" fill-rule="evenodd" opacity="0.5">
        <g id="Desktop" transform="translate(-699.000000, -219.000000)">
            <g id="mockups" transform="translate(733.000000, 219.000000)">
                <g id="Group" filter="url(#filter-1)">
                    <mask id="mask-4" fill="white">
                        <use xlink:href="#path-3"></use>
                    </mask>
                    <use id="iPhone-Body" fill="url(#linearGradient-2)" xlink:href="#path-3"></use>
                    <path d="M99,392.371257 C91.3784705,392.371257 85.2,386.174289 85.2,378.52994 C85.2,370.885592 91.3784705,364.688623 99,364.688623 C106.62153,364.688623 112.8,370.885592 112.8,378.52994 C112.8,386.174289 106.62153,392.371257 99,392.371257 Z M99,390.756437 C105.732351,390.756437 111.19,385.282448 111.19,378.52994 C111.19,371.777432 105.732351,366.303443 99,366.303443 C92.2676489,366.303443 86.81,371.777432 86.81,378.52994 C86.81,385.282448 92.2676489,390.756437 99,390.756437 Z" id="Home" fill="url(#linearGradient-5)" style="mix-blend-mode: multiply;"></path>
                    <g id="Group-2" transform="translate(12.000000, 30.089820)">
                        <mask id="mask-7" fill="white">
                            <use xlink:href="#path-6"></use>
                        </mask>
                        <g id="Combined-Shape">
                            <use fill="#FFFFFF" fill-rule="evenodd" xlink:href="#path-6"></use>
                            <path stroke-opacity="0.04" stroke="#000000" stroke-width="3" d="M40.8063469,327.004286 L40.8063469,308.413296 C40.8063469,307.032584 39.6870588,305.913296 38.3063469,305.913296 L11.7177419,305.913296 C10.3370301,305.913296 9.21774194,307.032584 9.21774194,308.413296 L9.21774194,327.133163 L7.3767472,326.703398 C2.21297266,325.497957 -1.5,320.8766 -1.5,315.504286 L-1.5,10 C-1.5,3.64872538 3.64872538,-1.5 10,-1.5 L164,-1.5 C170.351275,-1.5 175.5,3.64872538 175.5,10 L175.5,315.504286 C175.5,321.855561 170.351275,327.004286 164,327.004286 L40.8063469,327.004286 Z M11.7177419,17.6697594 L38.3063469,17.6697594 C39.6870588,17.6697594 40.8063469,18.7890475 40.8063469,20.1697594 L40.8063469,46.8828207 C40.8063469,48.2635326 39.6870588,49.3828207 38.3063469,49.3828207 L11.7177419,49.3828207 C10.3370301,49.3828207 9.21774194,48.2635326 9.21774194,46.8828207 L9.21774194,20.1697594 C9.21774194,18.7890475 10.3370301,17.6697594 11.7177419,17.6697594 Z M11.7177419,75.3184666 L38.3063469,75.3184666 C39.6870588,75.3184666 40.8063469,76.4377547 40.8063469,77.8184666 L40.8063469,104.531528 C40.8063469,105.91224 39.6870588,107.031528 38.3063469,107.031528 L11.7177419,107.031528 C10.3370301,107.031528 9.21774194,105.91224 9.21774194,104.531528 L9.21774194,77.8184666 C9.21774194,76.4377547 10.3370301,75.3184666 11.7177419,75.3184666 Z M11.7177419,132.967174 L38.3063469,132.967174 C39.6870588,132.967174 40.8063469,134.086462 40.8063469,135.467174 L40.8063469,162.180235 C40.8063469,163.560947 39.6870588,164.680235 38.3063469,164.680235 L11.7177419,164.680235 C10.3370301,164.680235 9.21774194,163.560947 9.21774194,162.180235 L9.21774194,135.467174 C9.21774194,134.086462 10.3370301,132.967174 11.7177419,132.967174 Z M11.7177419,190.615881 L38.3063469,190.615881 C39.6870588,190.615881 40.8063469,191.735169 40.8063469,193.115881 L40.8063469,219.828942 C40.8063469,221.209654 39.6870588,222.328942 38.3063469,222.328942 L11.7177419,222.328942 C10.3370301,222.328942 9.21774194,221.209654 9.21774194,219.828942 L9.21774194,193.115881 C9.21774194,191.735169 10.3370301,190.615881 11.7177419,190.615881 Z M11.7177419,248.264588 C10.3370301,248.264588 9.21774194,249.383876 9.21774194,250.764588 L9.21774194,277.47765 C9.21774194,278.858362 10.3370301,279.97765 11.7177419,279.97765 L38.3063469,279.97765 C39.6870588,279.97765 40.8063469,278.858362 40.8063469,277.47765 L40.8063469,250.764588 C40.8063469,249.383876 39.6870588,248.264588 38.3063469,248.264588 L11.7177419,248.264588 Z"></path>
                        </g>
                        <g id="Group" mask="url(#mask-7)" fill="#E1E8EE">
                            <g transform="translate(49.717742, 19.780538)">
                                <rect id="Rectangle-7" x="0.5705907" y="0.607419648" width="110.644821" height="5.34047098" rx="2.67023549"></rect>
                                <rect id="Rectangle-7-Copy" x="0.5705907" y="12.6234793" width="88.4670088" height="5.34047098" rx="2.67023549"></rect>
                            </g>
                        </g>
                        <g id="Group-Copy" mask="url(#mask-7)" fill="#E1E8EE">
                            <g transform="translate(49.717742, 77.429245)">
                                <rect id="Rectangle-7" x="0.5705907" y="0.607419648" width="110.644821" height="5.34047098" rx="2.67023549"></rect>
                                <rect id="Rectangle-7-Copy" x="0.5705907" y="12.6234793" width="73.8333682" height="5.34047098" rx="2.67023549"></rect>
                            </g>
                        </g>
                        <g id="Group-Copy-2" mask="url(#mask-7)" fill="#E1E8EE">
                            <g transform="translate(49.717742, 135.077952)">
                                <rect id="Rectangle-7" x="0.5705907" y="0.607419648" width="110.644821" height="5.34047098" rx="2.67023549"></rect>
                                <rect id="Rectangle-7-Copy" x="0.5705907" y="12.6234793" width="55.2087348" height="5.34047098" rx="2.67023549"></rect>
                            </g>
                        </g>
                        <g id="Group" mask="url(#mask-7)" fill="#E1E8EE">
                            <g transform="translate(49.717742, 192.726660)">
                                <rect id="Rectangle-7" x="0.5705907" y="0.607419648" width="110.644821" height="5.34047098" rx="2.67023549"></rect>
                                <rect id="Rectangle-7-Copy" x="0.5705907" y="12.6234793" width="88.4670088" height="5.34047098" rx="2.67023549"></rect>
                            </g>
                        </g>
                        <g id="Group-Copy" mask="url(#mask-7)" fill="#E1E8EE">
                            <g transform="translate(49.717742, 250.375367)">
                                <rect id="Rectangle-7" x="0.5705907" y="0.607419648" width="110.644821" height="5.34047098" rx="2.67023549"></rect>
                                <rect id="Rectangle-7-Copy" x="0.5705907" y="12.6234793" width="73.8333682" height="5.34047098" rx="2.67023549"></rect>
                            </g>
                        </g>
                        <g id="Group-Copy-2" mask="url(#mask-7)" fill="#E1E8EE">
                            <g transform="translate(49.717742, 308.024074)">
                                <rect id="Rectangle-7" x="0.5705907" y="0.607419648" width="110.644821" height="5.34047098" rx="2.67023549"></rect>
                                <rect id="Rectangle-7-Copy" x="0.5705907" y="12.6234793" width="55.2087348" height="5.34047098" rx="2.67023549"></rect>
                            </g>
                        </g>
                    </g>
                </g>
                <g id="Group" filter="url(#filter-8)" transform="translate(142.000000, 114.000000)">
                    <mask id="mask-10" fill="white">
                        <use xlink:href="#path-9"></use>
                    </mask>
                    <use id="Combined-Shape" fill="url(#linearGradient-2)" xlink:href="#path-9"></use>
                    <g id="Group-2" mask="url(#mask-10)">
                        <g transform="translate(33.000000, 32.000000)">
                            <rect id="Rectangle-6" stroke-opacity="0.04" stroke="#000000" stroke-width="3" fill="url(#linearGradient-2)" x="5.20821876" y="0.013435076" width="40.5758334" height="40.4076034" rx="4"></rect>
                            <rect id="Rectangle-6-Copy" stroke-opacity="0.04" stroke="#000000" stroke-width="3" fill="url(#linearGradient-2)" x="5.20821876" y="142.402133" width="40.5758334" height="40.4076034" rx="4"></rect>
                            <g id="Group" stroke="none" stroke-width="1" fill="none" transform="translate(0.385322, 4.808195)">
                                <rect id="Rectangle-7" fill="#E1E8EE" x="63.6622428" y="0.0156691498" width="183.436192" height="5.77251477" rx="2.88625739"></rect>
                                <rect id="Rectangle-7-Copy-5" fill="#E1E8EE" x="63.6622428" y="142.404367" width="183.436192" height="5.77251477" rx="2.88625739"></rect>
                                <rect id="Rectangle-7-Copy-2" fill="#E1E8EE" x="0" y="63.5133316" width="241.308836" height="5.77251477" rx="2.88625739"></rect>
                                <rect id="Rectangle-7-Copy-4" fill="#E1E8EE" x="0" y="87.5654765" width="241.308836" height="5.77251477" rx="2.88625739"></rect>
                                <rect id="Rectangle-7-Copy" fill="#E1E8EE" x="63.6622428" y="19.2573851" width="146.667969" height="5.77251477" rx="2.88625739"></rect>
                                <rect id="Rectangle-7-Copy-6" fill="#E1E8EE" x="63.6622428" y="161.646083" width="146.667969" height="5.77251477" rx="2.88625739"></rect>
                                <rect id="Rectangle-7-Copy-3" fill="#E1E8EE" x="0" y="111.617621" width="146.667969" height="5.77251477" rx="2.88625739"></rect>
                            </g>
                        </g>
                    </g>
                </g>
            </g>
        </g>
    </g>
</svg>