<svg xmlns="http://www.w3.org/2000/svg" width="1280" height="800" xmlns:xlink="http://www.w3.org/1999/xlink" style="background:#FFFFFF"><defs><linearGradient id="a" x1="100%" x2="6.01%" y1="75.73%" y2="27.33%"><stop stop-color="#FDB441" offset="0%"/><stop stop-color="#F0C" offset="100%"/></linearGradient><path id="c" d="M10 0h569c5.5 0 10 4.48 10 10v771c0 5.53-4.48 10-10 10H10c-5.5 0-10-4.48-10-10V10C0 4.47 4.48 0 10 0zm348.92 0l107.96 109.1c3.88 3.93 10.2 10.26 14.14 14.15L589 230.05V10c0-5.52-4.48-10-10-10H358.92z"/><filter id="b" width="109.8%" height="107.3%" x="-4.8%" y="-3.5%" filterUnits="objectBoundingBox"><feOffset dx="1" dy="1" in="SourceAlpha" result="shadowOffsetOuter1"/><feGaussianBlur stdDeviation="9.5" in="shadowOffsetOuter1" result="shadowBlurOuter1"/><feColorMatrix values="0 0 0 0 0 0 0 0 0 0 0 0 0 0 0 0 0 0 0.24 0" in="shadowBlurOuter1"/></filter><path id="e" d="M358.92 0L589 230.05H390.92c-17.67 0-32-14.33-32-32V0z"/><filter id="d" width="106.5%" height="106.5%" x="-3.3%" y="-3.3%" filterUnits="objectBoundingBox"><feOffset in="SourceAlpha" result="shadowOffsetOuter1"/><feGaussianBlur stdDeviation="2.5" in="shadowOffsetOuter1" result="shadowBlurOuter1"/><feColorMatrix values="0 0 0 0 0 0 0 0 0 0 0 0 0 0 0 0 0 0 0.12 0" in="shadowBlurOuter1"/></filter></defs><g fill="none" fill-rule="evenodd"><path fill="url(#a)" d="M0 0h1280v805H0z"/><g transform="translate(345 62)"><use fill="#000" filter="url(#b)" xlink:href="#c"/><use fill="#FFF" xlink:href="#c"/></g><g fill="#000" opacity=".12" transform="translate(442 309)"><ellipse cx="27.37" cy="27.76" rx="27.37" ry="27.76"/><ellipse cx="27.37" cy="127.71" rx="27.37" ry="27.76"/><ellipse cx="27.37" cy="227.66" rx="27.37" ry="27.76"/><path d="M76.63 0h317.45v55.53H76.63zm0 99.95h317.45v55.53H76.63zm0 99.95h317.45v55.53H76.63z"/></g><path fill="#000" d="M731.2 292.05H934v168.97" opacity=".1"/><g transform="translate(345 62)"><use fill="#000" filter="url(#d)" xlink:href="#e"/><use fill="#FAF5F5" xlink:href="#e"/></g></g></svg>