<svg xmlns="http://www.w3.org/2000/svg" width="1280" height="800" style="background:#FFFFFF"><defs><filter id="a" width="103.7%" height="105.1%" x="-1.9%" y="-2.3%" filterUnits="objectBoundingBox"><feOffset dy="5" in="SourceAlpha" result="shadowOffsetOuter1"/><feGaussianBlur stdDeviation="12" in="shadowOffsetOuter1" result="shadowBlurOuter1"/><feColorMatrix values="0 0 0 0 0 0 0 0 0 0 0 0 0 0 0 0 0 0 0.24 0" in="shadowBlurOuter1" result="shadowMatrixOuter1"/><feMerge><feMergeNode in="shadowMatrixOuter1"/><feMergeNode in="SourceGraphic"/></feMerge></filter></defs><g fill="none" fill-rule="evenodd" filter="url(#a)" transform="rotate(15 1898.653 -1308.69)"><g fill-rule="nonzero"><path fill="#FFA000" d="M763.4 407H438.7v-58.5c0-9 7.4-16.3 16.3-16.3h292c9 0 16.4 7.3 16.4 16.3V407z"/><path fill="#FFF" d="M763.4 407v75.4H438.7V407"/><path fill="#4CAF50" d="M763.4 482.4v59c0 8.8-7.3 16-16.3 16H455c-9 0-16.3-7.2-16.3-16v-59"/></g><g transform="translate(570.63 414.42)"><ellipse cx="30.4" cy="30.4" stroke="#008" rx="29.8" ry="29.8"/><path fill="#008" fill-rule="nonzero" d="M29.8 60.3l1-17.7-1-8.3-1 8.3m-6.5 16.7l5.5-16.7 1.2-8.3-3 8M15.2 56.4L25 41.8l3.2-7.7-5 6.8M9 51.8L22.4 40l5.3-6.7-6.7 5.3M4.5 45.7l15.6-8 6.8-5L19 36M1.6 38.6L19 35l7.8-3-8.5 1M.6 31l17.7 1 8.3-1-8.3-1M1.6 23.3l16.7 5.5 8.3 1.2-8-3M4.5 16.4L19 26.2l7.8 3.2-6.5-5M9 10.4l12 13 6.6 5.4-5.3-6.7M15.2 5.7l8 15.6 5 6.7-3.2-7.7M22.3 2.8L26 20l3 8-1.2-8.3m2-17.9l-1 17.7 1 8.3 1-8.3m6.7-16.7L32 19.5l-1 8.3 3-8M44.4 5.7L35 20.3 31.6 28l5-6.7m13.9-10.9L37.3 22 32 29l6.8-5.3m16.4-7.3l-15.6 8-6.7 5 7.6-3.2M58 23.3L40.8 27l-8 3 8.4-1.2M59 31l-17.6-1-8.3 1 8.4 1M58 38.6L41.4 33 33 32l8 3m14.2 10.7L40.6 36 33 32.6l6.6 5m10.9 14.2L38.8 38.6 32 33.3l5.3 6.7m7.1 16.4l-8-15.8-5-6.7 3.3 7.6m2.8 17.8L34 42l-3.2-8 1.3 8.4"/><ellipse cx="29.8" cy="31.9" fill="#008" fill-rule="nonzero" rx="5.3" ry="5.3"/></g><g fill-rule="nonzero"><path fill="#0D47A1" d="M1185.4 557.5H893.2c-9 0-16.2-7.3-16.2-16.2V348.5c0-9 7.3-16.3 16.2-16.3h292.2c9 0 16.2 7.3 16.2 16.3v192.8c0 9-7.3 16.2-16.2 16.2z"/><path fill="#FFF" d="M963.4 332.2h52.3v225.3h-52.3z"/><path fill="#FFF" d="M877 418.7h324.6V471H877z"/><path fill="#E53935" d="M975.6 332.2h28.2v225.3h-28.2z"/><path fill="#E53935" d="M877 431h324.6v28H877z"/></g><g fill-rule="nonzero"><path fill="#2196F3" d="M1640 407h-325v-58.5c0-9 7.3-16.3 16.3-16.3h292c9 0 16.4 7.3 16.4 16.3V407z"/><path fill="#FFF" d="M1315.2 407h324.6v75.4h-324.6z"/><path fill="#2196F3" d="M1315.2 482.4H1640v59c0 8.8-7.4 16-16.4 16h-292c-9 0-16.4-7.2-16.4-16v-59zm119.5-27.6l3.7 7 7.7 1-5.4 5.6 1.3 7.7-7.3-3.5-6.8 3.6 1-7.6-5.4-5.5 7.7-1.3m47.6-27.8l3.4 6.8 8 1.2-5.7 5.7 1.4 8-7.2-4-7 4 1.3-8-5.6-5.7 8-1.2m44.8 14l3.6 7 7.7 1-5.4 5.6 1.3 7.7-7-3.5-7 3.6 1.2-7.6-5.5-5.5 7.7-1.3m-82.1-47.6l3.7 7 7.7 1-5.4 5.6 1.3 7.7-7.3-3.6-6.8 3.5 1-7.7-5.4-5.5 7.7-1.2m89-6.8l3.6 7 7.7 1-5.4 5.6 1.3 7.7-7-3.6-7 3.5 1.2-7.7-5.5-5.5 7.7-1.2"/></g><g fill-rule="nonzero"><path fill="#F44336" d="M1315.2 91h324.6v44h-324.6z"/><path fill="#3F51B5" d="M1315.2 166.6H1640v46.7c0 7-7.4 12.8-16.4 12.8h-292c-9 0-16.4-5.8-16.4-12.7v-46.7z"/><path fill="#FFF" d="M1315.2 166.2H1640v-31h-325"/></g><g fill-rule="nonzero"><path fill="#FDD835" d="M548 648.8h110.5V874H548z"/><path fill="#D32F2F" d="M763.4 665v193c0 8.8-7.3 16-16.3 16h-88.5V649H747c9 0 16.4 7.3 16.4 16.3z"/><path fill="#303F9F" d="M548 648.8V874h-93c-9 0-16.3-7.2-16.3-16V665c0-9 7.4-16.2 16.3-16.2h93z"/></g><g fill-rule="nonzero"><path fill="#FFF" d="M1037 874.7H893.3c-9 0-16.2-7.3-16.2-16.2V665.7c0-9 7.3-16.2 16.2-16.2h144v225.2z"/><path fill="#8D1B3D" d="M1201.6 665.7v192.8c0 9-7.3 16.2-16.2 16.2H974.2l31-12.5-31-12.6 31-12.6-31-12.6 31-12.6-31-12.6 31-12.5-31-12.6 31-12.5-31-12.6 31-12.7-31-12.6 31-12.5-31-12.6 31-12.6-31-12.6 31-12.6-31-12.6h211.2c9 1.3 16.2 8.6 16.2 17.5z"/></g><g fill-rule="nonzero" transform="translate(1315.245 648.827)"><path fill="#F00" d="M324.6 16.3V209c0 9-7.3 16.3-16.2 16.3H113.2V0h195.2c9 0 16.2 7.3 16.2 16.3z"/><path fill="#006700" d="M113.2 225.3h-97C7.2 225.3 0 218 0 209V16.4C0 7.3 7.3 0 16.2 0h97"/><ellipse cx="112" cy="112.7" fill="#FF0" rx="42.6" ry="42.6"/><path fill="#FF0" d="M112 69.2c24 0 43.4 19.5 43.4 43.5S136 156 112 156s-43.4-19.4-43.4-43.3c0-24 19.5-43.5 43.4-43.5zM69.6 113c0 23.2 19 42.3 42.4 42.3 23.3 0 42.4-19 42.4-42.4 0-23.5-19-42.6-42.4-42.6-23.3 0-42.4 19-42.4 42.5z"/><path fill="#000" d="M112 69.2c12 .2 22.7 5 30.4 12.8 8 8 12.6 18.7 12.6 30.5 0 12-5 22.7-12.6 30.4-8 7.8-18.6 12.5-30.4 12.5-12 0-22.7-5-30.4-12.6-8-8-12.6-18.8-12.6-30.5 0-12 5-22.8 12.6-30.5 8-8 18.6-12.6 30.4-12.8-24-.2-43.6 19.5-43.6 43.5S88 156.3 112 156.3s43.6-19.7 43.6-43.6c0-24.2-19.7-43.7-43.6-43.5zM69.6 113c-.2 23.4 19 42.5 42.4 42.5 23.5 0 42.6-19.3 42.6-42.6 0-23.7-19.3-42.8-42.6-42.8-23.5 0-42.6 19.3-42.6 42.7h.2c.2-11.7 5-22.3 12.6-30 7.7-7.7 18.2-12.4 29.8-12.4 11.6 0 22 4.7 29.8 12.4 7.7 7.7 12.4 18.3 12.4 30 0 11.4-4.7 22-12.4 29.7-7.7 7.7-18.2 12.4-29.8 12.4-11.6 0-22-4.6-29.8-12.3-7.7-7.7-12.4-18.3-12.6-29.8z"/><path fill="#FF0" d="M112.4 99c13.2 0 29.6-1.8 39-5.4l-2-3.3c-5.5 3-22 5-37 5.3-18-.2-30.4-1.8-36.7-6L74 93c11.2 5 23.2 6 38.4 6"/><path fill="#000" d="M112.4 99.3c13.2-.2 29.6-2 39-5.5l.2-.2-2.3-3.7h-.2c-2.5 1.6-8 3-14.7 3.8-6.7.8-14.6 1.4-22 1.6v.2-.2c-17.8-.2-30.3-1.8-36.4-6l-.3-.3-2 4 .2.2c11.2 5 23.2 6 38.4 6V99c-15.2 0-27.2-1.2-38.3-6.2v.4l2-3.5-.3-.2-.2.2c6.5 4.3 19 6 37 6 7.4 0 15.3-.5 22-1.5 6.7-1 12.2-2.2 15-3.7l-.2-.2-.2.2 2.2 3.3.2-.2v-.2c-9.4 3.6-25.8 5.3-39 5.5v.3z"/><path fill="#FF0" d="M110.4 69.2h3.7v87h-3.6z"/><path fill="#000" d="M114 69.2V69h-3.8v87.3h4V69h-.2v.2h-.2V156h-3.2V69.3h3.4v-.2h-.2"/><path fill="#FF0" d="M155.6 114.3V111l-2.6-2.2-14.8-4-21.5-2-25.8 1-18.4 4.4-3.8 2.6v3.5l9.5-4 22.3-4H122l15.8 2 11 2.5"/><path fill="#000" d="M155.6 114.3h.2v-3.5l-2.6-2.2-15-4-21.5-2-25.8 1-18.6 4.4-3.8 2.6v4l9.7-4.2 22.3-3.8H122l15.8 1.8 11 2.6 7 3.7v-.4h-.2l.2-.2-7-3.4-11-2.6-16-1.8h-21.2L78.3 110l-9.3 4v-3l3.8-2.6 18-4.5 26-1 21.4 2 14.6 4 2.6 2.2v3h.4"/><path fill="#FF0" d="M112.2 83.4c16 0 30.2 2.3 36.7 5.5l2.4 4c-5.7-3-20.7-6-39-5.7-14.8 0-30.6 1.6-38.5 6l2.7-4.8c6.3-3.6 21.5-5 35.5-5"/><path fill="#000" d="M112.2 83.6c16 0 30.2 2.3 36.5 5.5h.2-.3l2.5 4.2.2-.2.2-.2c-5.5-3-19-5.7-35.7-5.7h-3.4v.3-.2C97.8 87 82 88.8 74 93v.2l.3.2 2.8-4.7v-.2.2c6-3.6 21.2-5 35.2-5V83c-14 0-29.2 1.5-35.7 5L73 94l1-.4c7.8-4.3 23.6-6 38.2-6h3.2c16.7 0 30.3 3 35.6 5.8l.8.4-3-5c-6.6-3-20.8-5.4-37-5.4v.4h.4z"/><path fill="#FF0" d="M134 130.5c-8-1.4-16-1.6-21.6-1.6-26.8.3-35.5 5.4-36.5 7l-2-3.2c6.8-5 21.4-7.8 38.6-7.6 9 .2 16.6 1 23.3 2l-2 3.3"/><path fill="#FF0" d="M150.7 133.4l-3.2 4.8-9.3-8-24.2-16.3-27-15-14.2-4.8 3-5.7 1-.4 8.8 2 29 15 16.7 11 14 9.6 5.7 7"/><path fill="#000" d="M150.7 133.4l-.2-.2-3 4.6-9-8-24.3-16-27-15-14-4.8 3-5.3.7-.4 8.6 2 28.8 15 16.7 10.8 14 10 5.7 6.5-.2 1h.2l-.2-.3.2.2h.3l.2-1-5.7-7-14-9.7-16.7-10.8-29.2-15-8.7-2-1 .3h-.3l-3.3 6 14.4 5 27 14.8 24.2 16.3 9.5 8.3 3.5-5v-.2"/><path fill="#F00" d="M137.2 83.8v33.5c0 6.7-3 13-7.3 17.5-4.6 4.4-11 7.3-17.8 7.3-7 0-13.2-2.8-17.7-7.2-4.4-4.5-7.3-10.6-7.3-17.5V83.8h50zm-10 33.7V94l-29.8-.4v23.7c0 4 1.6 7.7 4.5 10.6 2.5 2.7 6 4.3 10.2 4.3 4 0 8-1.6 10.6-4.2 2.2-2.4 3.8-5.2 4.2-8.6.2-.7.2-1.3.2-2z"/><path fill="#FFF" d="M127.2 115.3v2.2c0 .6 0 1.2-.2 2-.4 3.3-2 6-4.2 8.6-2.7 2.7-6.5 4.3-10.6 4.3-4 0-7.7-1.6-10.3-4.4-3-3-4.6-6.6-4.6-10.7V93.6h29.8v21.7z"/><path fill="#039" d="M109.6 126.5c0 1 .4 1.6 1 2.2.6.6 1.2 1 2 1s1.6-.4 2-1c.6-.6 1-1.2 1-2.2v-4.3h-6v4.3m0-26.8c0 1 .4 1.6 1 2.2.6.5 1.2 1 2 1s1.6-.5 2-1c.6-.7 1-1.3 1-2.3v-4.3h-6v4.3M98.4 113s.2 1.7.8 2.3c.6.6 1.2 1 2 1 1 0 1.7-.4 2-1 .7-.6 1-1.2 1-2.2V109h-5.8v4.3m22.3-.3s.2 1.7.8 2.3c.6.6 1.3 1 2 1 1 0 1.7-.4 2-1 .7-.6 1-1.2 1-2.2V109h-5.8v4.3m-11.1-.3s.2 1.7.8 2.3c.6.6 1.2 1 2 1s1.6-.4 2-1c.6-.6 1-1.2 1-2.2V109h-5.8v4.3"/></g><path fill="#3F51B5" fill-rule="nonzero" d="M2078 482.4v59c0 8.8-7.2 16-16 16h-292.3c-9 0-16.2-7.2-16.2-16v-59"/><g fill-rule="nonzero"><path fill="#5C6BC0" d="M2078 799v59c0 8.8-7.2 16-16 16h-292.3c-9 0-16.2-7.2-16.2-16v-59H2078z"/><path fill="#FFF" d="M1753.5 799v-75.3H2078V799"/><path fill="#5C6BC0" d="M1753.5 723.7V665c0-9 7.3-16.2 16.2-16.2H2062c8.8 0 16 7.3 16 16.3v58.7"/></g><g fill-rule="nonzero"><path fill="#42A5F5" d="M763.4 1006v193c0 8.8-7.3 16-16.3 16H455c-4.5 0-8.5-1.7-11.4-4.8l315.5-215c2.8 2.7 4.4 6.6 4.4 11z"/><path fill="#4CAF50" d="M747 989.8c4.8 0 9 2 12 5.3l-315.4 215.2c-3-2.8-5-7-5-11.3v-193c0-9 7.5-16.2 16.4-16.2h292z"/><path fill="#FDD835" d="M763.4 1050.5V1006c0-2.6-.6-4.8-1.4-6.8l-3-4.5c-3-3-7.2-5-16-5h-60.4l-244 164.5v44.7c0 2.3.8 4.5 1.6 6.6l3 4.4.2.2c3 3 7 4.7 11.4 4.7h64.5l244-164.5z"/><path fill="#000" d="M763.4 1028.6V1006c0-2.4-.6-4.6-1.4-6.6l-3-4.5c-3-3-7.2-5.2-12-5.2h-34.8L438.7 1176v22.7c0 2.4.7 4.6 1.5 6.7l3 4.4.2.2c3 3 7 4.7 11.4 4.7h35l273.6-186z"/></g><g fill-rule="nonzero"><path fill="#F44336" d="M1185.4 1215H893.2c-9 0-16.2-7.2-16.2-16v-193c0-9 7.3-16.2 16.2-16.2h292.2c9 0 16.2 7.3 16.2 16.3v193c0 8.8-7.3 16-16.2 16z"/><path fill="#FCFCFC" d="M1102.6 1085.2h-46v-46H1022v46h-46v34.5h46v46h34.6v-46h46"/></g><g fill-rule="nonzero"><path fill="#1565C0" d="M1623.6 1215h-292c-9 0-16.4-7.2-16.4-16v-193c0-9 7.3-16.2 16.3-16.2h292c9 0 16.4 7.3 16.4 16.3v193c0 8.8-7.4 16-16.4 16z"/><path fill="#FDD835" d="M1315.2 1123.8h80.8v91.3h42.6V1124H1640v-42.6h-201.4V990H1396v91.4h-80.8"/></g></g></svg>