<svg xmlns="http://www.w3.org/2000/svg" width="1069" height="668" xmlns:xlink="http://www.w3.org/1999/xlink" style="background:#FFFFFF"><defs><linearGradient id="a" x1="11.2%" x2="89.23%" y1="9.17%" y2="90.15%"><stop stop-color="#FF4F4C" offset="0%"/><stop stop-color="#FE897D" offset="100%"/></linearGradient><path id="c" d="M386.9 0H0v86.06h386.9z"/><filter id="b" width="106.2%" height="127.9%" x="-3.1%" y="-9.3%" filterUnits="objectBoundingBox"><feOffset dy="4" in="SourceAlpha" result="shadowOffsetOuter1"/><feGaussianBlur stdDeviation="2" in="shadowOffsetOuter1" result="shadowBlurOuter1"/><feColorMatrix values="0 0 0 0 0 0 0 0 0 0 0 0 0 0 0 0 0 0 0.24 0" in="shadowBlurOuter1" result="shadowMatrixOuter1"/><feOffset in="SourceAlpha" result="shadowOffsetOuter2"/><feGaussianBlur stdDeviation="2" in="shadowOffsetOuter2" result="shadowBlurOuter2"/><feColorMatrix values="0 0 0 0 0 0 0 0 0 0 0 0 0 0 0 0 0 0 0.12 0" in="shadowBlurOuter2" result="shadowMatrixOuter2"/><feMerge><feMergeNode in="shadowMatrixOuter1"/><feMergeNode in="shadowMatrixOuter2"/></feMerge></filter><rect id="e" width="164.63" height="38.73" rx="2"/><filter id="d" width="120.7%" height="187.8%" x="-10.3%" y="-33.6%" filterUnits="objectBoundingBox"><feOffset dy="4" in="SourceAlpha" result="shadowOffsetOuter1"/><feGaussianBlur stdDeviation="5" in="shadowOffsetOuter1" result="shadowBlurOuter1"/><feColorMatrix values="0 0 0 0 0 0 0 0 0 0 0 0 0 0 0 0 0 0 0.25 0" in="shadowBlurOuter1"/></filter><path id="g" d="M442.9 192.74h1.2c.8 0 1.5.67 1.5 1.5v64.23c0 .83-.68 1.5-1.5 1.5h-1.2V834c0 41.42-33.57 75-75 75H78.18c-41.42 0-75-33.57-75-75V342.45H2c-.83 0-1.5-.67-1.5-1.5v-64.23c0-.82.66-1.5 1.5-1.5h1.18V260h-1.2c-.8 0-1.5-.68-1.5-1.5v-64.24c0-.84.68-1.5 1.5-1.5h1.2V151.5h-1.2c-.8 0-1.5-.68-1.5-1.5v-33.75c0-.84.68-1.5 1.5-1.5h1.2V75c0-41.42 33.57-75 75-75H367.9c41.44 0 75 33.57 75 75v117.74zM30.05 110.26v686.68h386V110.26h-386zM222.6 881.2c18.8 0 34.03-15.24 34.03-34.06 0-18.8-15.24-34.06-34.04-34.06-18.8 0-34.1 15.25-34.1 34.06 0 18.82 15.2 34.07 34 34.07zM152.73 64.55c3.95 0 7.16-3.2 7.16-7.17 0-3.96-3.2-7.17-7.2-7.17s-7.2 3.2-7.2 7.2 3.2 7.2 7.1 7.2zm70.75-31.37c2.46 0 4.47-2 4.47-4.48 0-2.5-2-4.5-4.48-4.5-2.48 0-4.5 2-4.5 4.5 0 2.46 2.02 4.47 4.5 4.47zM191.23 53.8c-1.97 0-3.57 1.6-3.57 3.57 0 1.98 1.6 3.6 3.57 3.6h64.5c1.97 0 3.57-1.62 3.57-3.6s-1.58-3.58-3.57-3.58h-64.5z"/><filter id="f" width="101.3%" height="100.7%" x="-.7%" y="-.3%" filterUnits="objectBoundingBox"><feOffset in="SourceAlpha" result="shadowOffsetOuter1"/><feGaussianBlur stdDeviation="1" in="shadowOffsetOuter1" result="shadowBlurOuter1"/><feColorMatrix values="0 0 0 0 0 0 0 0 0 0 0 0 0 0 0 0 0 0 0.12 0" in="shadowBlurOuter1"/></filter><rect id="i" width="500.35" height="305.65" rx="6"/><filter id="h" width="104%" height="106.5%" x="-2%" y="-2.6%" filterUnits="objectBoundingBox"><feOffset dy="2" in="SourceAlpha" result="shadowOffsetOuter1"/><feGaussianBlur stdDeviation="3" in="shadowOffsetOuter1" result="shadowBlurOuter1"/><feColorMatrix values="0 0 0 0 0 0 0 0 0 0 0 0 0 0 0 0 0 0 0.221467391 0" in="shadowBlurOuter1"/></filter><rect id="j" width="500.35" height="305.65" x=".3" rx="6"/><filter id="k" width="104%" height="106.5%" x="-2%" y="-2.6%" filterUnits="objectBoundingBox"><feOffset dy="2" in="SourceAlpha" result="shadowOffsetOuter1"/><feGaussianBlur stdDeviation="3" in="shadowOffsetOuter1" result="shadowBlurOuter1"/><feColorMatrix values="0 0 0 0 0 0 0 0 0 0 0 0 0 0 0 0 0 0 0.221467391 0" in="shadowBlurOuter1"/></filter></defs><g fill="none" fill-rule="evenodd"><path fill="url(#a)" d="M-255-194h1367v924H-255z"/><path fill="#FFF" d="M176.62 103.54l373.7 100.13-178.18 665-373.7-100.12z"/><g transform="rotate(15 -304.908 722.538)"><use fill="#000" filter="url(#b)" xlink:href="#c"/><use fill="#22C0FC" xlink:href="#c"/></g><text fill="#FFF" font-family="Roboto-Medium, Roboto" font-size="20" font-weight="400" transform="rotate(15 -304.908 722.538)"><tspan x="77.38" y="63.11">Postcard</tspan></text><path fill="#000" fill-opacity=".1" d="M176.62 103.54l373.8 100.16-6.72 25.1-373.8-100.15z"/><text fill="#FFF" transform="rotate(15 -495.397 2022.71)" opacity=".9" font-size="14" font-family="Roboto-Medium, Roboto" font-weight="400"><tspan x=".46" y="13">07:01</tspan></text><path d="M488.28 192.22l15.46 4.14-4.14 15.46-15.46-4.14"/><path fill="#FFF" d="M496.5 196.37l.22-.85-2.9-.78-.23.85-2.9-.8-3.4 12.6 8.7 2.3 3.4-12.7"/><path d="M468.96 187.05l15.46 4.14-4.14 15.4-15.46-4.2"/><path fill="#FFF" d="M465.08 201.54l13.53 3.62 3.7-13.52"/><path d="M450.6 182.13l15.47 4.14-4.14 15.45-15.46-4.14"/><path fill="#FFF" d="M448.58 185.74c2.92-1.18 6.23-1.45 9.5-.57 3.27.87 6 2.77 7.94 5.24l-11.56 8.3-5.88-12.9zM199.5 161.87l-1-1.7-6.86 3.95-3.96-6.86-1.7 1 3.95 6.85-6.86 4 1 1.7 6.85-3.9 3.96 6.9 1.7-1-3.95-6.8"/><path d="M152.12 194.98l373.7 100.13-20.04 74.9-373.7-100.1z"/><text fill="#000" fill-opacity=".87" font-family="Roboto-Regular, Roboto" font-size="16" transform="rotate(15 -664.434 675.206)"><tspan x="77.38" y="28.98">Recipient</tspan></text><text fill="#000" fill-opacity=".54" font-family="Roboto-Regular, Roboto" font-size="14" transform="rotate(15 -664.434 675.206)"><tspan x="77.38" y="51.73">Amelie N Mason</tspan></text><path fill="#FC3875" d="M173.9 263.18c11.46 3.07 23.25-3.74 26.33-15.22 3.07-11.48-3.73-23.27-15.2-26.35-11.46-3-23.25 3.8-26.33 15.3-3.07 11.5 3.73 23.3 15.2 26.4z"/><path fill="#FFF" fill-rule="nonzero" d="M172.07 232.62l-3.9 14.55c-.3 1.14.37 2.32 1.52 2.63l14.5 3.9c1.1.3 2.3-.38 2.6-1.53l3.9-14.54c.3-1.15-.4-2.33-1.5-2.64l-14.6-3.9c-1.2-.3-2.4.3-2.7 1.5zm11.34 7.5c-.4 1.72-2.2 2.74-3.9 2.28-1.7-.47-2.7-2.23-2.3-3.96.5-1.72 2.3-2.74 4-2.28 1.8.46 2.8 2.23 2.3 3.95zm-11.5 5.8c.6-2.08 5-2.1 7.1-1.55 2.1.56 5.9 2.8 5.4 4.9l-.2 1.03-12.4-3.34.3-1.04z"/><path d="M170.35 226.6l24.9 6.66-6.67 24.94-24.9-6.67m-31.6 18.27l373.7 100.12-24.5 91.45-373.7-100.14z"/><text fill="#000" fill-opacity=".87" font-family="Roboto-Regular, Roboto" font-size="16" transform="rotate(15 -958.592 636.48)"><tspan x="77.38" y="28.98">Address</tspan></text><text fill="#000" fill-opacity=".54" font-family="Roboto-Regular, Roboto" font-size="14" transform="rotate(15 -958.592 636.48)"><tspan x="77.38" y="51.73">47 Greyfriars Road, CAPHEATON</tspan> <tspan x="77.38" y="71.73">United Kingdom</tspan> <tspan x="77.38" y="91.73">NE19 5PJ</tspan></text><path fill="#FCAB55" d="M153.85 338c11.47 3.06 23.25-3.75 26.33-15.23 3.07-11.47-3.73-23.27-15.2-26.34-11.46-3.07-23.25 3.74-26.32 15.22-3.08 11.47 3.72 23.27 15.2 26.34z"/><path fill="#FFF" fill-rule="nonzero" d="M162.8 317l1.68-6.23-2.28-3.95-3.95 2.28-.55 2.08-6.23-1.67-3.9 14.6 18.68 5 2.8-10.4-6.24-1.6zm-10.52 6.1l-2.08-.56.56-2.08 2.07.55-.55 2.1zm1.1-4.16l-2.06-.56.55-2.08 2.08.56-.56 2.08zm1.13-4.16l-2-.56.6-2.07 2.1.55-.5 2.08zm4 9.98l-2-.55.6-2 2.1.6-.5 2.1zm1.2-4.15l-2.1-.5.6-2.1 2.1.6-.5 2.1zm1.1-4.1l-2-.5.6-2.1 2.1.6-.5 2.1zm1.2-4.1l-2.1-.5.6-2.1 2.1.6-.5 2.1zm2.9 14.2l-2-.5.6-2 2.1.6-.5 2.1zm1.2-4.1l-2.1-.5.6-2.1 2.1.6-.5 2.1z"/><path d="M150.3 301.4l24.9 6.68-6.67 24.94-24.9-6.68m-38.3 43.2l373.7 100.14-24.5 91.44L80.83 461z"/><text fill="#000" fill-opacity=".87" font-family="Roboto-Regular, Roboto" font-size="16" transform="rotate(15 -1350.803 584.844)"><tspan x="77.38" y="28.98">Message</tspan></text><text fill="#000" fill-opacity=".54" font-family="Roboto-Regular, Roboto" font-size="14" transform="rotate(15 -1350.803 584.844)"><tspan x="77.38" y="51.73">Lorem ipsum dolor sit amet, consectetur </tspan> <tspan x="77.38" y="71.73">adipiscing elit. Cras eget nunc condimentum, </tspan> <tspan x="77.38" y="91.73">volutpat diam in, molestie nisl. Pellentesque </tspan> <tspan x="77.38" y="111.73">habitant morbi tristique senectus et netus et </tspan> <tspan x="77.38" y="131.73">malesuada fames ac turpis egestas. Mauris </tspan> <tspan x="77.38" y="151.73">aliquet eros nec diam sodales mollis, Lorem </tspan> <tspan x="77.38" y="171.73">ipsum dolor sit amet, consectetur adipiscing elit. </tspan> <tspan x="77.38" y="191.73">Cras eget nunc condimentum, volutpat diam in, </tspan> <tspan x="77.38" y="211.73">molestie nisl. Pellentesque habitant morbi </tspan> <tspan x="77.38" y="231.73">tristique senectus et netu.</tspan></text><path fill="#22C0FC" d="M127.12 437.74c11.47 3.08 23.26-3.74 26.33-15.2 3.08-11.5-3.73-23.3-15.2-26.36-11.46-3.07-23.25 3.74-26.32 15.22-3.08 11.48 3.72 23.27 15.2 26.34z"/><path fill="#FFF" fill-rule="nonzero" d="M121.88 419.9l-1.04 3.9 3.9 1.05 14.55-8.4-2.9-4.95-14.6 8.4zm21.23-5.67c.6-.3.7-.95.4-1.46l-1.7-3.1c-.3-.5-.9-.68-1.4-.38l-2.4 1.3 2.9 4.9 2.4-1.4z"/><path d="M123.57 401.16l24.9 6.67-6.67 24.94-24.9-6.67"/><g transform="rotate(15 -2509.583 515.334)"><use fill="#000" filter="url(#d)" xlink:href="#e"/><use fill="#767676" xlink:href="#e"/></g><g transform="rotate(15 130.41 667.736)"><use fill="#000" filter="url(#f)" xlink:href="#g"/><use fill="#FFF" xlink:href="#g"/></g><g transform="rotate(15 140.89 2498.206)"><g transform="translate(.03 322.207)"><use fill="#000" filter="url(#h)" xlink:href="#i"/><use fill="#FFF" xlink:href="#i"/></g><path fill="#000" fill-opacity=".12" d="M250.2 357.14h1.46v235.78h-1.45zm226.98 106.24v1.45h-202.3v-1.45z"/><path fill="#FAF2DB" d="M488.37 341.8c0-1-.8-1.8-1.77-1.8v-2.48h.18c.9-.1 1.6-.86 1.6-1.8 0-.9-.7-1.67-1.6-1.76h-.38c-.88.1-1.58.85-1.58 1.77h-2.47c0-.98-.8-1.78-1.77-1.78-.98 0-1.77.8-1.77 1.78h-2.4c0-.98-.8-1.78-1.7-1.78-1 0-1.7.8-1.7 1.78h-2.4c0-.98-.8-1.78-1.7-1.78-1 0-1.8.8-1.8 1.78h-2.5c0-.98-.8-1.78-1.7-1.78s-1.7.8-1.7 1.78h-2.5c0-.98-.8-1.78-1.7-1.78-1 0-1.8.8-1.8 1.78h-2.5c0-.98-.8-1.78-1.7-1.78s-1.7.8-1.7 1.78h-2.5c0-.98-.8-1.78-1.8-1.78s-1.7.8-1.7 1.78h-2.4c0-.98-.8-1.78-1.8-1.78s-1.8.8-1.8 1.78h-2.5c0-.98-.8-1.78-1.7-1.78-1 0-1.8.8-1.8 1.78h-2.4c0-.98-.8-1.78-1.8-1.78s-1.8.8-1.8 1.78h-2.5c0-.98-.8-1.78-1.7-1.78-1 0-1.8.8-1.8 1.78h-2.5c0-.98-.8-1.78-1.8-1.78s-1.7.8-1.7 1.78h-1.5c0-.98-.8-1.78-1.7-1.78s-1.8.8-1.8 1.78c0 1 .8 1.8 1.8 1.8V340c-1 0-1.7.8-1.7 1.8 0 .97.8 1.77 1.8 1.77v2.48c-1 0-1.8.8-1.8 1.8 0 .97.8 1.77 1.8 1.77v2.48c-1 0-1.8.8-1.8 1.8 0 .97.8 1.77 1.8 1.77v2.5c-1 0-1.7.78-1.7 1.77 0 .98.8 1.78 1.8 1.78v2.5c-.9 0-1.7.8-1.7 1.77s.8 1.7 1.8 1.7v2.5c-1 0-1.8.8-1.8 1.7 0 1 .8 1.8 1.8 1.8v2.5c-1 0-1.8.8-1.8 1.7s.8 1.7 1.7 1.7v2.5c-1 0-1.8.8-1.8 1.7 0 1 .8 1.8 1.8 1.8v2.5c-1 0-1.7.8-1.7 1.8 0 .9.8 1.7 1.8 1.7v2.4c-1 0-1.8.8-1.8 1.8s.8 1.8 1.8 1.8v2.5c-.9 0-1.7.8-1.7 1.8 0 .9.8 1.7 1.8 1.7v2.5c-.9 0-1.7.8-1.7 1.8s.8 1.8 1.8 1.8v1.5c-.9 0-1.7.7-1.8 1.6v.3c.1.9.8 1.6 1.8 1.6s1.7-.7 1.8-1.6v-.1h1.5c0 1 .8 1.8 1.8 1.8s1.8-.8 1.8-1.8h2.5c0 1 .8 1.8 1.8 1.8s1.8-.8 1.8-1.8h2.5c0 1 .8 1.8 1.8 1.8s1.7-.8 1.7-1.8h2.5c0 .9.8 1.7 1.8 1.7s1.8-.8 1.8-1.8h2.5c0 1 .8 1.8 1.8 1.8s1.7-.8 1.7-1.8h2.4c0 1 .8 1.8 1.8 1.8s1.8-.8 1.8-1.8h2.5c0 1 .8 1.8 1.8 1.8s1.8-.8 1.8-1.8h2.4c0 1 .8 1.8 1.8 1.8s1.8-.8 1.8-1.7h2.5c0 1 .8 1.8 1.8 1.8s1.8-.8 1.8-1.8h2.5c0 .9.8 1.7 1.7 1.7s1.7-.8 1.7-1.8h2.5c0 1 .8 1.8 1.8 1.8s1.8-.8 1.8-1.8h2.4c0 1 .8 1.8 1.8 1.8s1.8-.8 1.8-1.8h2.4c0 1 .8 1.8 1.8 1.8s1.8-.8 1.8-1.8-.8-1.8-1.7-1.8V410c1 0 1.8-.8 1.8-1.76 0-1-.8-1.8-1.7-1.8V404c1 0 1.8-.8 1.8-1.73 0-1-.8-1.8-1.7-1.8V398c1 0 1.8-.8 1.8-1.78 0-1-.8-1.8-1.8-1.8V392c1 0 1.8-.8 1.8-1.8 0-.97-.8-1.77-1.8-1.77v-2.47c1 0 1.8-.8 1.8-1.8 0-.97-.8-1.77-1.8-1.77v-2.5c1 0 1.8-.8 1.8-1.8s-.8-1.8-1.8-1.8v-2.5c1 0 1.8-.8 1.8-1.8s-.8-1.8-1.7-1.8v-2.5c1 0 1.8-.8 1.8-1.8s-.8-1.8-1.8-1.8v-2.5c1 0 1.8-.8 1.8-1.8s-.8-1.8-1.8-1.8v-2.5c1 0 1.8-.8 1.8-1.8s-.8-1.8-1.8-1.8v-2.5c1 0 1.8-.8 1.8-1.8s-.8-1.8-1.8-1.8v-2.5c1 0 1.8-.8 1.8-1.8"/><path fill="#DFF1E9" d="M412.52 410.06h70.92v-70.94h-70.92"/><path fill="#FFE06D" d="M412.52 388.88s33.95-9.47 70.92 0v21.18h-70.92v-21.18"/><path fill="#75C4B6" d="M434.73 398.2c.52.66 1.65 1.03 2.28 1.05l2.3.08c.7.02 1.8-.28 2.4-.9 1.8-1.9 4.9-7.53 5.9-23.9 1.1-18-4.1-26.1-6.5-28.77-.5-.63-1.6-.66-2.2-.08-2.5 2.52-8.2 10.24-8.3 28.3-.1 16.38 2.7 22.22 4.3 24.23"/><path fill="#EA9082" d="M443.37 349.22s-3.78 23.98-1.73 49.22l-.28.22c-1.12.9-2.6.65-2.6.65H437c-1.58 0-2.28-1-2.28-1 3.7-25 1.48-49.2 1.48-49.2s1.94-2.8 2.57-3.3c0 0 1.15-1.3 2.22.1 0 0 1.6 1.9 2.3 3.5"/><path fill="#7A5D4C" d="M434.45 398.5c1.68 1.58 5.9 1.96 7.56.1 1.4-1.47 2.2-3.4 2.8-5.26 1.5-4.18 2.2-8.66 2.6-13.06.7-6.12 1-12.4.1-18.52-.5-3.95-1.4-7.82-3.1-11.45-.6-1.3-2-4.6-3.6-5.2-2.2-.7-3.7 1.9-4.7 3.5-1.9 3-3.1 6.4-4.1 9.8-2.4 9-2.3 18.9-1.2 28 .5 4.1 1.2 8.9 3.8 12.2.3.4.9-.1.6-.5-1.4-1.8-2.1-4.1-2.6-6.3-1.2-5.1-1.4-10.5-1.5-15.8-.1-9.3.9-19.9 6.5-27.7.6-.8 2.2-3.2 3.5-1.8.7.9 1.3 1.8 1.9 2.8 1.9 3.2 3 6.9 3.6 10.6 1.2 6.3 1 12.8.4 19.2-.4 4.9-1.1 9.8-2.7 14.4-.5 1.5-1.2 3-2.1 4.3-1.3 1.9-5.2 2-6.9.5-.3-.3-.9.2-.5.6"/><path fill="#7A5D4C" d="M434.73 398.6c.52 0 .52-.8 0-.8s-.52.8 0 .8"/><path fill="#7A5D4C" d="M442.98 349.12c-1.04 6.63-1.57 13.37-1.96 20.07-.4 6.7-.48 13.5-.28 20.3.06 1.8.15 3.5.25 5.3 0 .9.1 1.8.1 2.7.1 1.2-.9 1.3-2 1.4-.6 0-1.2-.1-1.7-.1-.7-.1-1.1 0-1.8-.4-1-.5-.4-1.1-.3-2 1.7-12.6 2.1-25.4 1.7-38.1-.1-3-.3-6-.5-9-.1-.8.3-1 .9-1.8.4-.7.9-1.3 1.5-1.9 1.2-1.3 2.9 1.9 3.2 2.4.2.3.4.7.6 1.1.2.5.9 0 .7-.4-.7-1.3-1.8-3.3-3.1-4.1-1.1-.7-2.2.4-2.8 1.2-.5.5-2.1 2.1-2 2.9 0 .5.1 1.1.1 1.6.7 9.9.7 19.9.1 29.9-.2 3.5-.5 6.9-.9 10.4-.3 2.1-.5 4.1-.8 6.2-.1.7-.3 1 .1 1.5 1.6 1.7 5.7 1.3 7.3 0 .4-.4-.1-2.5-.1-3-.2-1.8-.2-3.6-.3-5.4-.1-3.7-.2-7.4-.1-11.1.1-6 .4-12.1.9-18.1.3-4 .7-8 1.3-11.9.1-.5-.7-.7-.8-.2"/><path fill="#F0A34C" d="M457.64 399.56c.57.47 1.62.6 2.18.5l2-.35c.56 0 1.5-.5 1.9-1.2 1.17-1.9 2.9-7.4.82-21.9-2.3-15.9-8.3-22-10.8-24-.6-.4-1.56-.3-1.97.4-1.73 2.7-5.34 10.5-2.2 26.3 2.84 14.4 6.3 19 8.07 20.4"/><path fill="#EB8F5D" d="M459.26 400.1c-1.05 0-1.63-.54-1.63-.54.46.38 1.22.53 1.8.53.1 0 .22 0 .32-.1h-.5m1.64-.3l.9-.2c.4-.1 1.1-.4 1.5-.8-.9.8-2 .8-2 .8l-.5.1m2.8-1.4v-.1h-.1"/><path fill="#DE9798" d="M450.12 356.3v-.02s.03-.1.1-.24l-.1.26m6.3-1.1c-.5-.58-.97-1.08-1.4-1.5.48.45 1 .98 1.4 1.5m-5.37-1.02c.27-.56.54-1.06.7-1.25 0 0 .42-.7 1.1-.7.23 0 .5.07.78.3-.2-.13-.45-.2-.7-.2-.45 0-.9.22-1.16.6-.2.33-.46.75-.72 1.25"/><path fill="#E5724A" d="M459.42 400.1c-.57 0-1.33-.16-1.78-.54-1.26-22.22-7.34-42.65-7.52-43.26l.1-.26c.16-.4.5-1.17.83-1.86.26-.5.5-.92.72-1.25.26-.38.7-.6 1.17-.6.24 0 .5.07.7.2l.08.06s.6.4 1.3 1.1c.43.4.9.9 1.4 1.5.03.7 1.1 21.9 7.3 43.3h-.04l-.17.2-.1.1c-.4.4-1.1.7-1.5.8l-.9.1-1.1.2h-.3"/><path fill="#7A5D4C" d="M457.44 399.9c2.1 1.22 5.8.5 6.92-1.76 1.1-2.22 1.34-4.84 1.5-7.28.33-5.6-.38-11.35-1.34-16.87-.87-5.1-2.35-10-4.74-14.5-1.3-2.5-2.95-4.8-5.02-6.6-2.06-1.9-3.34-.5-4.33 1.6-4.02 8.3-2.6 18.6-.72 27.2 1 4.5 2.3 9 4.3 13.1.9 1.7 1.9 3.6 3.5 4.9.4.3 1-.3.6-.6-1.8-1.5-2.9-3.8-3.8-5.9-2.3-5.3-3.6-11.2-4.6-17-.9-5.5-1.1-11.3.1-16.8.3-1.5 2-8.4 4.5-6.3 6.5 5.5 8.9 15.2 10.1 23.3.8 5.3 1.3 10.9.7 16.3-.1 1.3-.4 2.6-.8 3.8-.6 1.7-1.7 2.3-3.5 2.6-1 .1-1.6.2-2.6-.4-.4-.3-.8.4-.4.7"/><path fill="#7A5D4C" d="M457.64 399.96c.5 0 .5-.8 0-.8-.52 0-.52.8 0 .8"/><path fill="#7A5D4C" d="M456 355.2c.3 6.2 1.08 12.38 2 18.5.93 6.32 2.16 12.58 3.68 18.78.36 1.47.75 2.92 1.15 4.38.06.2.57 1.4.4 1.6-.46.56-1.2.88-1.88.93-.52 0-1.03.1-1.54.2-2.4.4-1.8-1.9-2-3.6-.8-11-2.7-21.9-5.3-32.6l-1.8-7.1c-.1-.6.7-1.8 1.1-2.5 1.3-2.5 3.5.1 4.6 1.5.4.4.9-.2.6-.6-.6-.9-2.3-3-3.5-3.1-1.3-.1-1.9 1-2.4 2.1-1.1 2.1-.9 2.4-.3 4.6 2.8 10.3 4.8 20.8 6.1 31.4.2 1.7.4 3.4.5 5.1.1 1.4 0 3.1.3 4.4.3.9 2.2.8 2.8.7 1.1-.2 2.5-.2 3.3-1 .2-.2.8-.6.8-1 0-1.7-1-3.8-1.4-5.4-2.9-11.4-4.7-23.1-5.7-34.8-.1-1.1-.2-2.1-.2-3.2 0-.6-.8-.6-.8 0"/><path fill="#FDD544" d="M467.56 402.9c1.18-5.8-7.94-10.46-11.15-5.64-3.2-5.35-13.7-9.84-19.8-.76-2.9-1.86-9.1.9-8.1 6.48l39.2-.1"/><g fill-opacity=".12"><path fill="#1A252E" d="M390.9 420.98h-.1c-3.07 0-6.1-.43-9-1.24-.05-.4.1-.58.55-.77.25-.1.5-.18.77-.18h.48c.18 0 .35-.1.5-.2 2.2.4 4.46.7 6.75.7 2.97 0 6-.4 9-1.3 5.45-1.6 10.17-4.5 13.92-8.2 5.4-5.4 8.77-12.6 9.4-20.3.1.1.22.3.35.4h.2c.28-.1.6 0 .85-.2.08 0 .15-.1.2-.1l-.1 1.1c-.02 0-.02-.1-.03-.1-.08-.2-.23-.3-.4-.3h-.2c-.24.1-.36.4-.26.6.08.1.33.3.53.3h.2l.2-.2-.1.6h-.1c0 .1-.1.2 0 .2.1.1.1.1.2.1-.8 5.1-2.7 9.8-5.6 14-.1-.2-.2-.3-.4-.4v-.2c0-.1-.1-.1-.2-.1h-.1c-.1 0-.1.1-.1.2-.2.1-.4.5-.3.8.1.2.4.3.6.3-2.2 2.9-4.8 5.5-7.9 7.6 0-.1 0-.2-.1-.3-.1-.2-.2-.2-.5-.4 0 .3-.1.5 0 .6s.1.2.3.2c-2.9 2-6.2 3.5-9.7 4.5-3.1.9-6.3 1.3-9.4 1.3m21.7-9l-.1.1v.4c.1 0 .3 0 .3-.1.1-.1.1-.3 0-.3 0-.1-.1-.1-.2-.1m9.3-13.4h-.2l-.1.1.3.3.1-.1h.2l.2-.1v-.1c-.1-.2-.2-.2-.3-.2m1.6-2.2v-.1h-.1v.1h.1m.7-2c-.1-.1-.1-.2-.1-.2s-.1 0-.1.1l.3.1m-44.8 25c-7.1-2.6-13.3-7.5-17.4-14l1.6-.5c2.6 4 6 7.3 10 9.8l-.1.1-.1.1.2.1.2-.4c3 1.8 6.2 3.2 9.7 4.1h-.6l-.9.1c-.5 0-.9.2-1.4.2-.2 0-.4 0-.7-.1l-.2.2m45.5-30.2c-.2-.3-.5-.5-.9-.5h-.3c-.2.1-.3.2-.4.3l.1-1.3 1.6-.5c0 .6 0 1.2-.1 1.9m-67.9-3.6c.1-1.2.2-2.4.4-3.6l.3.2c.1-.1.1-.2.1-.3v-.1l-.1-.3-.1-.1h-.1l.1-.1c.2-1.4.6-2.8 1-4.1l.1.1c.1 0 .3 0 .6.1-.1-.3-.1-.4-.2-.6 0-.1-.1-.2-.2-.2h-.1c3.1-9.4 10.2-17.4 20-21.2v.1h.4v-.2c.8-.3 1.7-.6 2.5-.8 1.8-.5 3.5-.9 5.3-1.1 0 .1 0 .3.1.4.1.1.3.2.5.2.1 0 .3 0 .4-.1.2-.2.1-.4 0-.6 1.1-.1 2.2-.2 3.2-.2 11.1 0 21.5 5.5 27.8 14.4l-1.6.5c-.9-1.2-1.9-2.4-3-3.5h.3c.3 0 .5-.2.5-.5-.1-.3-.2-.5-.2-.7-.2 0-.4.1-.5.2v-.1c.1-.2-.1-.4-.3-.5v.2h-.2c-.1-.4-.1-.4-.6-.4-.1 0-.2.1-.2.2l-.3.4c-.4-.4-.8-.8-1.3-1.1.1 0 .1-.1.1-.1.3-.1.4-.5.2-.8-.1-.2-.2-.3-.4-.3v-.2c-.1-.1-.1-.1-.2-.1h-.2c-.1 0-.1.1-.1.2-.1.1-.3.3-.3.5-5.6-4.2-12.5-6.6-19.7-6.6-2.9 0-6 .4-9 1.2-13.4 3.9-22.4 15.6-23.3 28.8l-1.6.5m1.2-4.8v.2l.1.1.1-.1-.2-.1m11.1-18.7h-.1v.1l-.2.1h-.2c.1.2.2.3.5.3h.2l-.2-.3h.1-.1m40.2-2.5s-.1 0-.1.1c-.1 0 0 .1 0 .1.1 0 .1.1.2.1.1-.1.1-.2.2-.2-.1 0-.2-.1-.3-.1h-.1m-2.1-.8h-.1c-.1 0-.1.1-.1.3.1 0 .1.1.2.1h.1c.1-.1.2-.3.1-.3 0-.1-.1-.1-.2-.1m1.6-.2h-.1l.1.1.1-.1v-.1m-5.6-2.3c-.1 0-.1.1-.1.2s.1.1.1.1h.1c.1-.1.1-.1.1-.2h-.2m-7.5-2v-.5h-.2.2-.2v-.1h-.1v.1h-.1l.1-.1-.1.1v.1h.2v.2-.3.2h.3"/><path fill="#1A252E" d="M390.85 417.7c-1.9 0-3.8-.17-5.64-.5v-.15l-.1-.04-.1-.1h-.1v.3l-1-.2.1-.1h-.2l-.1-.2-.3.2c-7.2-1.9-13.6-6.3-17.8-12.6l.9-.2c5.6 8.1 14.8 13 24.7 13 2.8 0 5.5-.3 8.3-1.1 1.1-.3 2.2-.7 3.2-1.1h.1c8-3.3 13.9-9.9 16.7-17.7.1.1.2.1.3.1h.1c.2 0 .3-.1.4-.3.1-.2.1-.4-.1-.5-.1 0-.2-.1-.3-.1.8-2.5 1.3-5.2 1.4-7.9l.9-.2c-.2 10-5.4 19.3-13.7 24.8 0-.1.1-.3.1-.5h-.4l-.1.7.2.1-.1.1h-.1c-2.4 1.6-5.1 2.8-8 3.7-2.8.8-5.7 1.2-8.5 1.2m-3.1-1c-.1.1-.1.2-.2.3v.1l.4.2.1-.1-.1-.2.2.2-.1-.1-.1-.2.2.2-.2-.2m-5.4-.7v.2h.4v-.2h-.4m33.8-12.6h-.1l.1.1h.1v-.1m2.6-4.4c-.1 0-.2.1-.3.2h.2c.1 0 .2 0 .4-.2h-.3m-58.7-15c.5-5.6 2.6-10.9 5.9-15.4l.1.1.2-.2c.1-.1.2-.2.2-.3h.1-.1c3.9-5 9.3-8.9 15.9-10.7 1-.3 2-.5 3-.7.3.2.6.5.7.7v.1c-1.1.2-2.3.5-3.5.8-7.6 2.2-13.7 7.3-17.5 13.6h-.1c-.1-.1-.1-.1-.2-.1s-.2 0-.2.1c-.1.2-.1.3.1.4l.2.1c-1.7 3-2.8 6.3-3.4 9.7-.1.1-.2.1-.3.2-.2.2-.1 1.1.2 1.3v.3l-.9.3m1.3-4.7l-.3.3.1.1.2-.1.2-.1-.1-.2m52.8-10.9c-1.1-1.3-2.2-2.6-3.5-3.7.1-.1.1-.2.1-.3 0-.1-.1-.1-.2-.1h-.1c-.1 0-.1.1-.1.1-2.1-1.8-4.4-3.3-6.8-4.5 0-.3 0-.6-.1-.7-.2-.3-.6-.5-1.1-.5-.2 0-.4 0-.5.1-.2.1-.4.2-.5.3-3.4-1.4-7.1-2.1-10.9-2.1-1.4 0-2.9.1-4.3.3l-.1-.1c-.1-.2-.3-.4-.5-.6 1.6-.2 3.2-.4 4.8-.4 1.8 0 3.5.2 5.2.5-.1.2-.1.4-.1.5 0 .2.2.3.3.3h.2c.2-.1.4-.4.2-.6v-.1c7.3 1.5 13.9 5.5 18.5 11.5l-.9.3m-10.2-9.4v.2s.1 0 .2.1v-.2h-.2m-11.4-2.9v.1h.1v-.1h-.1m-35.6 44.5c-.8 0-1.5-.2-2.2-.8-1-.8-1.7-2.1-2.3-4-.2-.9-.4-1.7-.4-2.5v-.1c0-.8.2-1.4.4-2.1.5-1.3 1.5-2.1 3-2.5.5-.2 1-.2 1.5-.2.4 0 .9.1 1.3.2l-.2 1.9c-.4-.1-.8-.1-1.1-.1-.3 0-.6 0-.8.1-.4.1-.8.4-1.1.7v-.2c0-.1-.2-.2-.3-.2-.1 0-.2 0-.2.1-.1.1-.2.4-.1.4.1.1.2.2.4.3-.1.2-.2.5-.3.7-.2.9-.2 1.9.2 3.1.4 1.3.8 2.2 1.3 2.8.4.4.9.6 1.3.6h.5c.3-.1.7-.3 1-.5l-1-2.8-1.4.4-.6-1.8 3.5-1 1.7 5.8c-.9.7-1.8 1.2-2.9 1.5-.4.1-.8.2-1.2.2m2.3-1h-.1v.1h.1l-.1-.1m6-1.4c-.6 0-1.2-.1-1.6-.5-.8-.5-1.4-1.5-1.8-2.8l-.5-1.8c.1.1.1.1.2.1h.2c.2-.1.3-.3.1-.5-.1-.2-.3-.2-.6-.4v.4l-1.4-5 2.1-.6 2.2 7.5c.1.4.2.8.4 1.1h-.3c-.2.1-.32.3-.4.5-.1.4 0 .6.4.6h.1c.4-.1.7-.2 1-.5h.4s.3 0 .4-.1c.4-.1.7-.4.8-.8.1-.4.1-1-.1-1.7l-2.53-8 .05-.2 2.1-.6 2.1 7.3c.4 1.3.4 2.5 0 3.3-.4.9-1.2 1.5-2.3 1.8-.4.1-.8.2-1.2.2m1.8-4.6c0-.1 0-.2-.1-.2h-.1v.2h.3m-.1-4.1l-.2.4.1.1.2-.1h.2c0-.1-.1-.3-.2-.4m-1.1-3.6c-.1 0-.2.2-.2.4h.4v-.2l-.1-.2m5.3 10.5l-.2-5.1.1-.2.1-.1-.2.1-.1.1v-.8h.2c.3-.1.3-.3.2-.5-.1-.1-.2-.1-.3-.2l-.2-5.3 2.9-.8 6.1 10.6-2.1.6-1.5-2.6-2.9.9.2 3-.1.1c-.1-.1-.2-.1-.3-.1-.1 0-.2 0-.2.1l.1.2-1.6.5m6.5-2.4v.2-.1.1-.1.1-.1l.2-.3v-.1h-.3l.1.3v.1l.1-.1m-5.6-2.8c-.1 0-.3 0-.4.2-.2.2-.1.6.1.8.2.1.4.2.6.2.2 0 .3-.1.4-.2.2-.2.2-.7-.1-.9-.1-.1-.3-.2-.5-.2m1.7 0h-.1v.1l.4.18v-.1l.1-.1h-.4m-1.1-5.9l.2 1.6.2 3.9 2.1-.6-1.3-2.4-.3-.5c.1 0 .2 0 .3-.02.1-.1.1-.2 0-.3h-.3v.2l-.3-.5-.6-1.2m3.3 4.1l.1.3c.1.2.3.4.5.4.1 0 .1 0 .2-.1.2-.1.4-.34.3-.6 0-.1-.1-.2-.1-.24l-.2-.3c-.1-.2-.2-.25-.4-.25h-.2c-.3 0-.4.2-.4.4v.2c0 .1.1.2.2.2l.1-.1m-.9-.2v-.1.1h.1m5.8 4.3l-1.2-4.1h.4v-.1l-.4.1-1-3.6.1-.1c0-.1-.1-.1-.1-.1l-1-3.4 2.8-.8c.6-.14 1.1-.2 1.5-.2.5 0 1 .1 1.4.3.7.4 1.3 1.2 1.6 2.3.4 1.46.2 2.6-.6 3.4L389 392l-.1.1h.1l.7.8-2.3.6-3.1-3.9-.7.2 1.3 4.4-1 .3v-.4h-.3v.1h-.3v.23l.1.1.2.1-.9.3m.3-2.9v.1h.1-.1m-1.1-1.3h-.1v.1-.1h-.1m-.9-2.4l.3.4c.1-.1.1-.3.1-.5l-.2.1h-.3v-.1m2.2-3.7c-.2 0-.4.1-.6.1l-.5.2.9 3.3.5-.2c.5-.1.8-.4.9-.7.1-.4.1-.8 0-1.4s-.4-.9-.7-1.1c-.1-.1-.3-.2-.6-.2m-2.3 1.6h-.1c-.1 0-.1.2-.1.3.1 0 .2.1.3.1h.1c.1-.1.16-.2.1-.3 0-.1-.1-.1-.2-.1m5.6-.6l-.1.2h.16l.07-.2s-.1 0-.2-.1m-4.8-.7l-.3.1v.1l.2-.1v-.1m7.9 8l-.2-5.7-.24-6.4 2.8-.8 1.8 3.05h-.2c-.1 0 0 .1 0 .2.1-.1.2-.1.2-.1v-.1l4.2 7.3-2.1.6-1.5-2.6-3 .8.2 3-2.1.6m2.9-4.6l.1.1h.3v-.1c0-.1-.1-.2-.1-.2l-.3-.1h-.1l-.1.1-.1.1v.1l.3.2m3.2-1.3h-.1c-.1.1-.2.3-.1.4 0 0 .1.1.2.1s.1 0 .1-.1c.1 0 .2-.2.1-.3 0-.1-.1-.1-.2-.1m-4.6-5.1c.1.5.1 1 .2 1.55l.24 3.9 2.1-.6-1.4-2.5-.6-1.1-.6-1.2m3.9 5.1v.1l-.02-.1m.1-.7l.2.1-.4-.2.2.1m-1.6-.6h-.2s-.07.1 0 .1h.33v-.1c0-.1-.1-.1-.15-.1m-3.6-.5l.16.48c.2 0 .3-.2.3-.3h-.6l.1.2-.1-.2m.8.3h-.03v.07h.1l-.1-.1m.5-.3h-.2v.2c0 .1.1.1.2.1h.1c.1 0 .1-.1.1-.2 0 0-.1-.1-.2-.1m2.7-1c-.2 0-.4.1-.6.4-.1.2 0 .6.2.7.1.1.2.1.4.1.1 0 .2 0 .3-.1.1-.1.2-.1.4-.1 0-.2.1-.3 0-.5s-.3-.4-.5-.4m-3.8 1v.1h-.1m0-2.2h-.2v.1h.1l.1-.1-.1-.1m9.3 7.1l-3.3-11.2 2.6-.8 5 6.1h-.4l.2.4.1-.03c.1 0 .1 0 .2.1v.03l.3.1-.1.3c.2 0 .3-.1.2-.2h.14v-.3l.4.4h.1c-.2-.5-.5-1.1-.7-1.9l-1.7-6.1 1.97-.5 3.3 11.3-2.6.7-5.8-7.15h-.1c.3.6.6 1.2.8 2l1.8 6.1-2 .6m3.6-5c-.1 0-.1 0-.1.07l-.2.14c.1.3.3.38.5.4h.08s.1 0 .2-.1 0-.1 0-.2l-.2-.2c-.1-.1-.1-.1-.2-.1m.37.1v.06m-2.2-3s-.1 0-.1.05c-.2.1-.3.5-.2.6.1.2.3.3.5.3h.2c.2-.1.4-.4.3-.6-.1-.2-.4-.3-.6-.3M399 381l.05.2-.1-.2v.2c.1 0 .2-.1.2-.2v-.3c-.1-.2-.2-.4-.4-.5h-.1l-.1.5.1.1v.1l.03.2-.1-.2.1.2m11 6.2l-2.8-9.5-2.2.6-.6-1.8 6.4-1.9.54 1.8-.3.1c-.1 0-.1-.1-.1-.2l-1 .2c-.3.1-.42.3-.5.5l-.3.1 2.7 9.4-2.1.6m-2.2-10v-.2l-.1.1.04.2h.15m.4-.6l.2.1.1-.1-.4-.2-.1.1.2.1m7.6 9.1l-.1-.4-3.2-10.8 5.1-1.4.5 1.8-3 .8.8 2.65 2.7-.8.5 1.8-2.8.8.9 3.1 3-.9.5 1.8-5.1 1.4m.5-2.1l-.2.1-.1.1-.1.1v.1l.4-.3v-.1h-.1m-.6-2.6l-.1.1-.4.3.3.1v.1h.5v-.2l.2-.1-.1-.1v-.2h-.1l-.2-.1m6.9 2.6L418 372l5.1-1.5.5 1.9-3 .9.75 2.65.9-.3c0 .13.1.2.26.2.1 0 .1-.06.1-.1 0-.1 0-.15-.1-.2l1.7-.46.5 1.8-2.8.7.9 3.1 3-.8.5 1.8-5.1 1.4"/><path fill="#1A252E" d="M370.78 404.7l-1.47-5.05 1.6-.45c.2-.05.4-.08.6-.08.3 0 .5.04.7.13.4.16.6.43.7.8.1.3.1.57.1.8 0 .2-.2.43-.4.63.4.05.6.16.8.32.2.17.3.4.4.73.1.36.1.7-.1 1.02-.2.32-.4.53-.8.64l-1.8.5m1-2.6h-.5l.4 1.3.3-.1c.2-.1.3-.2.4-.3.1-.2.1-.3 0-.5-.1-.4-.3-.5-.6-.5m-.7-2.1h-.5l.4 1.3.2-.1c.2-.1.4-.2.4-.3.1-.2.1-.3.1-.5-.1-.4-.3-.6-.6-.6m4.3 3.3l-1.4-5.1 2.4-.7.3 1-1.2.3.3 1 1.1-.3.3.9-1.1.3.3 1.1 1.4-.5.3 1-2.5.7m4.4-1.3c-.2 0-.4-.1-.7-.2l-.3-1.2c.3.2.6.3.9.3h.3c.1-.1.3-.2.3-.3.1-.1.1-.2.1-.4s-.2-.4-.5-.5c-.5-.2-.9-.4-1.1-.6l-.4-.4c-.1-.2-.2-.3-.2-.5-.1-.4-.1-.8.1-1.1h.3c.1-.1.1-.3 0-.4.2-.2.4-.3.6-.3.2-.1.3-.1.5-.1s.4 0 .5.1l.4 1.2c-.3-.2-.5-.3-.8-.3h-.1c-.2 0-.2.1-.3.2-.1.1-.1.2-.1.3.1.2.3.4.6.5.4.2.7.3.9.4l.2.2v.3h.3c.1.1.2.3.2.4.2.4.1.8-.1 1.2s-.5.6-1 .7c-.1 0-.3.1-.4.1m4.1-1.2l-1.2-4.1-1 .2-.3-1 2.1-.6-.1.2v.1l.1-.2.2-.2.8-.2.3 1-.9.3 1.2 4.1-1.1.3m-.4-5.3v-.1.1m7.4 3.3c-.2 0-.3 0-.5-.1-.3-.1-.6-.3-.9-.7-.2-.3-.4-.7-.6-1.3-.3-.9-.3-1.7-.1-2.2.2-.5.6-.8 1.1-1 .2 0 .4-.1.6-.1.2 0 .4 0 .6.1.3.1.6.3.8.6.2.3.4.8.6 1.4.3.9.3 1.6.1 2.1l.7.5-.4.5-.6-.5c-.2.2-.5.4-.8.4-.2.1-.4.1-.6.1m.7-.5v.1l.1.2.3-.3c0-.1.1-.2 0-.3v-.2l-.1-.1-.3.3.1.1.1.1m-1.2-3.9h-.2c-.2 0-.3.2-.4.4-.1.2 0 .7.2 1.3.2.5.3.9.4 1 .1.1.2.3.4.4h.4l.3-.2-.9-.7.5-.6.7.7-.2-.9c-.1-.6-.2-1-.3-1.2-.1-.2-.2-.4-.3-.5-.1 0-.2-.1-.3-.1m-1.3 2.2h-.1l.4.3v-.1h.1l-.4-.2m6.6.8c-.3 0-.5-.1-.7-.2-.4-.2-.6-.5-.8-1l-1-3.6 1.1-.3 1 3.3c.1.3.2.4.3.5.1.1.2.1.3.1h.1c.2 0 .3-.1.3-.3.1-.1.1-.3 0-.5l-1-3.4 1.2-.4.4 1.4h-.1l-.1.1.2.1v-.1l.6 2.1c.1.3.1.5.1.7h-.4c-.1 0-.2.2-.1.3 0 .1.2.2.3.2l.1-.1-.1.2c-.3.4-.6.6-1.1.8-.3.1-.5.1-.7.1m3.4-1v-5l1.1-.3.3.5c-.1.2-.1.4 0 .6.1.3.4.4.6.5l1.8 3.1-1.1.3-.4-.7-1.3.3v.9l-1 .3m.9-4.4l.1 2.4 1-.3-1.1-2.1m4.2 3l-1.5-5.1 1.1-.3.8 2.9v.2l.1.1.3.9 1.3-.4.3 1-2.4.7m3.7-1.1l-1.5-5 1.1-.3 1.5 5.1-1.1.3m-.4-2.2v.3c0 .1.1.1.2.1h.1c.1-.1.1-.2.1-.2 0-.1-.1-.1-.2-.2m3.8 1.2l-.5-1.6c.3-.1.5-.2.7-.4.3-.4.2-.7-.3-.8-.2 0-.4-.1-.6-.1l-.1.1-.4-1.3-1 .3-.3-1 3.1-.9.3 1-1 .3 1.2 4.1-1.1.3m4.36-1.3l-.6-2.2-2.2-2.4 1.2-.3 1.15 1.4.2-1.8 1.1-.4-.4 3.2.7 2.2-1.1.3m-18 19.7l-1.86-2.3-1.9.4c-.1-.1-.2-.1-.4-.1s-.37.02-.47.13v.1h-.2l1.6-2.5-1.4-2.6 2.8.7 2-2.2.2 2.9.6.2h.1v-.1h.1l1.9.9-2.7 1-.4 2.9m0-2.7l-.1.2v.1l.2-.4-.1-.1-.2.35v.1l.1-.2m-.8-4v.2h.1c.1 0 .1-.1.1-.1l-.2-.1m-7.5 6.9l-1.3-1.7-2.1.4 1.1-1.8-1-1.9 2.1.5 1.3-1.5.1 2.2 1.98.9-.3.1c0-.2-.2-.4-.4-.4l-.5-.3v.3c-.3.1-.4.3-.3.6.1.1.1.2.2.3l-.6.2-.2 2.1m15.7-4.5l-1.4-1.6-2.1.4 1.2-1.8-1-1.9 1.4.3v.05c.1.2.2.3.4.3.1 0 .1 0 .2-.1h.2l1.5-1.6.2 2.1 2 .9-2 .8-.3 2.15m-1.3-3h-.1v.1c.1 0 .1 0 .1-.06v-.1l-.1-.1m-19.5-31l-.2-2.9-1.7-.8h-.1l-1-.5 2.8-1.1.4-2.9 1.9 2.3 2.9-.5-1.6 2.5.5.9h-.1c0 .1-.1.3-.1.5l.1.1c.1 0 .2.1.3.1l.1-.1.1-.1.5.9-2.3-.6c.1-.3.1-.5.1-.6-.1-.2-.2-.3-.36-.3h-.16c-.1 0-.1.3-.1.4.1.1.3.2.5.3l-.4-.1-2 2.1m.1-1.2v-.1c-.1 0-.1 0-.1-.1v.1l.1.1m1.5-1.4l-.1.1h.2v-.1l-.17-.1m-.8-.5c-.1-.1-.1-.1-.2-.1 0 0-.05 0-.1.1h.3m-1.8-.9l.1.1v-.1l-.1-.1m2.1-1.1h-.1s-.1.1 0 .2l.2.1c0-.1.1-.2.1-.2 0-.1-.1-.1-.15-.1m-.2-1.4h-.2c-.3.1-.4.4-.3.6 0 .2.3.3.5.3h.1c.2-.1.3-.4.2-.6-.1-.16-.3-.25-.4-.25m7.6 4.1l-.1-2.1-2-.9 2-.8.3-2.1 1.3 1.7.6-.1v.1h.2v-.1l1.3-.2-.1.1-.2.1h.1l-1.1 1.6 1 1.9-1.1-.3h-.3l-.7-.1-1.5 1.6m1.5-2.3v.2l.2-.1.2-.2s0-.1-.1-.1h-.1l-.1.5-.1-.08m-.9-.8v.5l.1.2.1.2c.1-.1.2-.2.2-.3v-.1c0-.2-.1-.4-.5-.4m-.7-.4v.1l.4.2v-.1l-.4-.2m.2-.2h-.1s-.1.1-.04.2l.3.1v-.3c0-.1-.1-.1-.1-.1m-15.9 8.2l-.2-2.1-1.9-.9 2-.8.2-2.1 1.37 1.64 2.1-.4-1.1 1.8 1.1 1.9-2.13-.4-2 1.5m.8-3.5c0 .2 0 .4.1.4h.4c.1-.1.1-.2 0-.3s-.2 0-.4-.1m-.4-.2s-.1.1-.1.2l.1.1c.1 0 .1 0 .2-.1l-.2-.1"/><path fill="#1A252E" d="M397.93 408.82l.26-.38-.2.3-.1.08m24-10.12l.3-.15-.3.14m-33.8-13.5l-.2-.5.1.4"/><path fill="#FBFAF5" d="M388.06 385.18l-.16-.6.1.3-.1-.3.02-.02.3.06.3.05c-.04.25-.2.44-.45.5m-.08-.3v.3l-.1-.3m-13.7 7.53l-.6-.33v-.23l.2.08.1.04.2.1v.03l-.1.2m32.7-16.4l-.3-.2-.3-.2v-.2l.1-.1.5.3-.1.1h-.1m-11-21.7h-.4v-.3.3h-.1v-.3h-.2v-.2l.2-.1h-.2l.2-.1v-.1h.1v.1l.2-.1h-.2.3v.2l.1.4m-29.5 15h-.1l.5-.6h.1v.1c-.1.1-.2.3-.3.4l-.2.2m27-1.2l-.5-.3v-.2l.5.4v.2m1.2.7l-.1-.1-.1-.1h.1l.1-.5h.2v.1l.2.2h.1l-.2.2-.3.1m3.5 40.5h-.1l.2-.3-.3.3h-.1l.4-.5.2.1-.5.5m.4-.6l-.2.2.2-.2m-16 8v-.5h.6v.3l-.6.1m4.7-24.9l-.1-.1.1-.1.2.1h-.1m-20.5-4.5h-.6c0-.3.1-.5.3-.6l.1.3.1.3m-8.6-5.3l-.5-.2.1-.5.2.1c.1 0 .2.1.2.2s0 .2-.1.3m-.3-.7v-.1h-.1m36.1 4.8l-.3-.2-.3-.2v-.1l.5.3v.1m-4.1 11.5l-.4-.5h.1v-.1l.5.4v.1l-.1.1m2.2 1.4l-.1-.3-.1-.1.4-.3.2.1h.2v.1c0 .1 0 .2-.1.2-.1.1-.2.2-.4.3m6.2-18.6l-.1-.3v-.2l.1.2-.1-.2c0-.1 0-.1-.1-.1l.2-.4c.2.1.4.2.4.5v.4c-.1.1-.2.2-.3.2l-.1-.2.1.2m-2.1-28.2l-.4-.1.3-.1-.1.1M405 393l-.1-.2c-.1-.1-.1-.24-.1-.33l.2.6m-19.3 24.2l-.6-.2v-.4h.04l.1.08.2.1v.1l.1.1v.3m-5.9-27.3l-.1-.1.6-.2v.2l-.6.1m3.8 5.9h-.2l.1-.1.1-.3-.1.1v-.1l.3-.1v.1l-.2.3-.2.3m7.3-8.5h-.1l-.3-.3v-.2l.1-.1h.1c.1 0 .2 0 .3.1.1.1.2.2.2.3v.1h-.5m31.1 11.1l-.3-.3.2-.2h.1l.2-.1c.1 0 .2.1.3.2h.1v.1l-.2.1-.2.1h-.1m0 0l.16-.1-.1.1m-7.9-18.3v-.1l-.3-.1.4-.3.1-.1.1.1.1.1.2.2-.2.1v.2l-.5.04m-14.9 26.1l.1-.1-.1.1m.3 0l-.2-.1h-.3v-.1l.5.2m15.4-23.6l-.04-.1v-.2l.2-.1.1-.1.2-.3.06.1v.2l-.5.4M386 357.3v-.1c0-.24-.3-.5-.7-.7l.7-.1c.2.2.4.4.5.7v.1l-.4.06m7.5 10.7l-.1-.2v-.57c.5 0 .6.2.6.4v.1l-.3.3h-.1M373 397l-.17-.44c.1-.06.18-.1.26-.1.1 0 .3.1.4.3l-.5.26m4.9-1.97l-.1-.28v.25m-4.3 19.9c-.2-.08-.3-.16-.4-.26l.3-.24.1-.15.1.07-.2.6M367 390.6l-.1-.1.3-.5c.2.1.3.3.36.5l-.3.1-.2.1m12.45-2.53l-.4-.45v.03-.04h.3l.3-.1c.1.3.1.5-.1.7m-1.5 6.8l-.1-.1v.1l-.1.1.1-.1-.2-.4h.6l-.3.4.1.2v-.1l.1.1m0-.3l-.1.1.1-.1m10 22.8l-.5-.2h.1c.1-.1.1-.2.2-.3l.2.3.2.2c0 .1-.1.1-.1.2m.1-.1l-.2-.2-.2-.2.2.3.2.3m-5.6-48h.1M361.9 381l-.2-.2.4-.4.2.2-.2.26-.2.2m20.4 14l-.2-.2-.1-.1v-.3h.6v.5l-.2.04m0-.6v.1M369.7 363c-.2 0-.36-.2-.4-.5l.2-.04h.1v-.1l.04.03h.1-.05v.1l.2.4h-.2m14.5 54.7l-.7-.3.3-.3.1.4h.2v.1m-2.9-17.5l-.6-.1v-.6l.3.4.2.2m20.7-15.6l-.2-.1v-.1l-.3-.1v-.1c-.1-.2-.2-.2-.2-.2h-.1l-.2-.5.1-.1.1-.1.2.1.4.5v.2h-.1m-30.9 7.8h-.1l-.1-.1v-.3l.2-.1.4-.1-.3.3-.3.2m-6.2-5.3l-.1-.3.2-.1-.2.4m42.6 25.9l-.3-.1c0-.2.1-.5.1-.7h.5l-.1.5-.3.2m-25.8 7c-.8-.2-1.7-.5-2.5-.8l.2-.3c.2.1.5.1.7.1.5 0 1-.2 1.4-.2l.9-.1.7-.1.8.2c-.1.1-.3.2-.5.2h-.4c-.3 0-.5 0-.8.1-.4.2-.6.3-.5.7m40.9-44.1c-.3 0-.4-.2-.4-.4l.4-.1c.1.1.2.2.2.3 0 .1-.1.2-.2.2M390 409l-.15-.25c-.12-.3 0-.52.3-.6-.02.16-.04.28 0 .38 0 .2.2.3.4.3l.2-.1c.1-.1.2-.4.1-.47-.05 0-.1-.1-.17-.1.2.06.4.2.4.4l-1.14.5m2.9.7v-.2c.1-.2.2-.36.4-.36.1 0 .2.1.3.2l-.9.3m19.2 2.5v-.6h.1c.1 0 .2.1.3.1.1.1.1.4 0 .4-.1.1-.3.1-.6.2m-9.9 2.4h-.28s.1-.1.2-.1v.2m1.3-10.25c0-.2-.07-.34 0-.4h.1c.1 0 .13.02.2.04v.2c-.1.1-.2.1-.36.2m12.2-.8l-.1-.2h.2l.1.2-.2.1m-5.1-12l-.3-1.2h.1c.2 0 .4 0 .6.1.5.1.6.4.25.7-.1.2-.4.4-.6.4m-9.9.8c-.3 0-.5-.2-.63-.4-.1-.2-.1-.4 0-.6l.6 1.1m17.3 14.8c-.25 0-.5-.2-.6-.4-.1-.3.1-.7.4-.8h.04c.06 0 .1.1.2.1 0 0 .07 0 .1-.1.05 0 .1-.1.1-.1.2 0 .3.2.4.3l-.6.8m-14.4-4.4c-.2 0-.3-.1-.37-.5l.6.4-.1.1c-.1 0-.2.1-.2.1"/><path fill="#FBFAF5" d="M390.9 408.96c-.18 0-.35-.1-.4-.28-.03-.1 0-.22.02-.38 0-.07.03-.15.04-.25.2.1.4.18.52.25.07.04.12.08.17.13.05.06-.05.35-.16.45l-.2.08m19 6.16c-.2-.03-.2-.13-.3-.27-.1-.16 0-.33 0-.65.3.2.4.26.5.4 0 .07.1.15.1.23l-.5.3m-12.6-18.35c-.1 0-.3-.13-.4-.24-.1-.06 0-.35.1-.38.1 0 .2.05.4.1 0 .13-.1.26-.1.4 0 .06-.1.1-.1.1l-.1.02m10.4-4.3c-.1 0-.3-.06-.3-.1-.1-.1 0-.27-.1-.53.3.14.5.2.5.28 0 .1-.1.25-.2.33h-.1m-10.5 12.7l-.3-.12v-.43l.4.3-.2.3M407 413h.07v.1m-10.5-19.3c-.1 0-.2-.1-.3-.1 0-.1.1-.2.14-.2.1 0 .1.1.2.1l.1.1v.2m26.8-3.5h-.1c-.1-.1-.3-.2-.4-.4l.1-1c.1-.2.2-.3.4-.4h.3c.4 0 .7.2.9.5l-.1 1.1c0 .1-.1.1-.2.1-.2.2-.6.17-.8.2h-.1m-4.3 6.9l-.3-.12.2-.8c.1 0 .2 0 .3.1.2.17.2.3.2.5 0 .1-.2.3-.3.3m4.9-5.4c-.2 0-.4-.1-.5-.3-.1-.2 0-.5.3-.6h.2c.2 0 .3.1.4.24v.5c0 .03-.1.1-.1.1l-.1.03m-5.9 14.7c-.1 0-.3 0-.3-.12v-.05c-.1-.15 0-.3.1-.4l.1-.02c.1 0 .2.06.3.1.1.1.1.2.1.3 0 .1 0 .15-.1.2h-.1m.2-6.8s-.1 0-.2-.1c.1-.22.2-.33.4-.33.1 0 .2 0 .3.1-.1.2-.3.3-.4.3m6-6.9c-.1 0-.2-.05-.3-.1-.1-.14 0-.3.1-.4h.3l-.1.5m-.3 1.6c-.2-.06-.4-.1-.6-.1l.2-.2.3.3m-.8 2c-.1-.03-.2-.04-.3-.1v-.2l.2.08c.1.1.1.1.1.3m-36-42.6c-.2 0-.4 0-.5-.2-.1-.1-.1-.2-.1-.4l1-.1c.2.2.2.5 0 .6 0 .1-.2.1-.3.1m-8.8 1.8v-.1l.6-.3v.5h-.6m-.2 16.5h-.2c-.1-.1-.1-.3-.1-.5.3.1.5.1.6.2v.5h-.2m16.8-6h-.1v-.1h.4v.2h-.3m-8.9 4.4l-.3-.1.1-.2.2.2-.1.2M360 400.7l-.1-.2.1-.02.1.2-.2.07m15.5-10.4h-.1m-13.7-6.3c-.3-.22-.4-1.03-.2-1.3.1-.1.3-.1.5-.13-.1.5-.2 1-.2 1.47m16.8 14c.1-.3.3-.5.6-.7 0 .2 0 .3-.1.6-.2 0-.4.1-.5.1m-13.8-.7c-.3 0-.5-.2-.3-.5.1-.2.2-.4.4-.5l.2-.1c.2.3.5.6.8.7-.3.3-.7.4-1.1.5h-.1m8.1-3.9c-.2 0-.4 0-.5-.2-.2-.2-.3-.6-.1-.8.1-.1.3-.1.4-.1.2 0 .4.1.5.2.3.2.3.7.1.9-.1.1-.2.2-.4.2m-7.6-20.6h-.2c-.2-.1-.2-.3-.1-.5 0 0 .1-.1.2-.1 0 0 .1 0 .2.1v.1l-.3.5M359 378c-.3-.1-.5-.1-.6-.1h-.1l.1-.45h.1c.1 0 .2 0 .2.1.1.1.1.25.2.5m14.6 10.9l-.1-.26c0-.2 0-.3.04-.4l.2-.1c.2 0 .3 0 .4.1.1 0 .1.4.1.4-.1.1-.2.1-.4.1m-6.1 6.3c-.25-.1-.4-.1-.5-.1-.1-.1 0-.3 0-.4h.3c.1.1.1.2.2.5m7.5-4.4h-.2v-.2h.3c0 .1 0 .2-.06.2m-13 3.2h-.2l-.17-.5v-.4c.3.2.5.3.6.4.2.2.1.4-.1.5h-.2m9.3-2.6v-.8c.3.1.4.2.5.3.3.2.2.4-.2.5h-.2m-16.1.9c-.2-.1-.3-.2-.4-.3-.1-.1 0-.4.1-.4l.2-.1c.2 0 .3.1.4.2s.1.1 0 .2l-.1.2m3.3-10.8l-.2-.1v-.5l.4.3c0 .1-.1.2-.2.3m20.4 5.7h-.1l-.1-.3v-.1c.1 0 .2.1.2.2l-.1.2m-2 4c-.2 0-.4-.2-.5-.4l-.1-.3h-.3c-.1 0-.1-.1-.1-.2v-.2c0-.3.1-.4.4-.4h.3c.2 0 .4 0 .4.2l.3.3.2.2c.1.3 0 .5-.2.6h-.2m15.2-6.1c-.2 0-.3 0-.4-.1-.2-.1-.3-.5-.1-.7.1-.2.3-.3.6-.3.2 0 .4.2.5.4.1.1 0 .3 0 .4-.2 0-.3.1-.4.2-.1.1-.2.1-.3.1m-.2-.8c0 .2.1.2.2.2l-.3-.2m7.7-1.4c-.2 0-.4-.2-.5-.3-.1-.2 0-.6.2-.7h.2c.2 0 .5.2.6.4 0 .1-.2.5-.4.5h-.1m-.1-.7v.1h.1l.1-.2h-.1v.1m-14-14.4c-.2 0-.4-.1-.5-.3-.1-.2.08-.5.3-.6h.2c.18 0 .3.1.4.2.1.2 0 .5-.2.6l-.12.1m3.1 3.4c-.1 0-.2 0-.3-.1-.03 0-.1-.1-.1-.1l.16-.5s.1-.1.2-.1l.4.6c0 .1 0 .1-.1.1l-.2.1m12.7 14.4c-.2 0-.4-.1-.5-.4l.3-.2h.1s.1 0 .2.1l.1.2v.3c-.1.1-.1.1-.2.1M394 387c-.1 0-.3-.04-.3-.1-.1-.15 0-.4.1-.5h.1c.1 0 .24.06.3.17.05.1 0 .32-.15.4l-.1.02m-14.9-.8c-.1 0-.23-.1-.3-.2-.1-.2 0-.3.1-.4l.16-.1c.1 0 .2 0 .3.1 0 .1 0 .3-.1.4h-.1m10.2-1c-.1 0-.3-.1-.3-.2v-.3c.1-.1.2-.1.3-.1.2 0 .3.1.3.2.1.1 0 .2-.1.3 0 0-.1.1-.2.1m-3.4-16.7l-.4-.2c-.1-.2 0-.3.1-.4 0-.1.1-.1.1-.1.1 0 .2 0 .2.1v.4m7.5-.9c-.2-.1-.4-.1-.4-.2s0-.3.1-.3c.1-.1.1-.1.2-.1s.2 0 .3.1c.1 0 0 .2 0 .4m-1.7 18c-.1 0-.2-.1-.3-.2 0-.1 0-.2.1-.3.1-.1.1-.1.2-.1s.3.1.3.2v.2h-.2m-6.8 0c-.1 0-.2-.1-.3-.1l.1-.4.4.2c0 .1-.1.3-.2.4m-7.3-13.7l-.2-.1c.1-.1.1-.3.2-.4.1 0 .2.1.4.2-.2.1-.2.3-.3.3m24.2 13l.2-.5.1-.1v.1c.2.3.2.3-.3.4M385.4 370c-.23-.06-.37-.1-.55-.13.13-.1.2-.16.27-.16.08 0 .14.1.28.3m-5.72 14.6l-.02-.1.5-.2.05.2c-.2.1-.3.1-.5.2m8.6-1.9h-.2l.1-.1h.3c0 .1 0 .3-.1.3m-3.7-10.6l-.2-.1v-.2c.1 0 .2 0 .2.1.1.1.1.2.1.3m-4.3 18.3h-.2l.1-.2h.1l.3.1c0 .1 0 .2-.1.2m3.3-21.1h-.2l.1-.2.2.1v.1m-2.2 22.4h-.1l.1-.1h.1l.2.1-.1.1m16-6.8h-.1v-.1h.1v.1m-4 1.8l-.1-.2h.1l.1.1h-.1m8.4-1.9l-.1-.1v-.1l.1.1v.1m-13.4 0h-.1v-.1l.1.1-.1.1m.6.5h-.1v-.1l.2.1h-.1m-1.2 1.4v-.1h.1l-.1.1"/><path fill="#FBFAF5" d="M392.03 384.24c-.2 0-.35-.1-.44-.47l.5.36-.1.1m7.4-2.16l-.2-.04-.1-.2v-.07c0-.04 0-.07.2-.1 0 .15-.1.28-.1.4m-7.7.8c0-.27-.1-.46 0-.52 0-.02.1-.03.1-.03s.1 0 .1.1l.1.3v.1c-.1.1-.3.1-.5.2m16.6-6.8c0-.2.2-.4.4-.5l.9-.2c0 .1.1.2.1.3l-1.5.5m-12.8-6.7l-.6-.1h.1c.1 0 .2 0 .3.1v.2m11 7.1h-.3c-.1-.1-.1-.2 0-.3 0 0 .2-.1.3-.1l.1.5m2.4-17.9l-.1-.1h.2l.1.2-.2.1m-15.9-1.8h-.1v-.2l.2.1v.1m10.8 3.4c-.7-.3-1.3-.6-2-.9.1-.1.2-.2.4-.3.1-.1.3-.1.4-.1.4 0 .9.2 1.1.6.1.1.1.4 0 .7m10.6 4.3h-.2l-.5-.5c.1 0 .2-.1.2-.1l.1-.1.2-.4c.1 0 .3-.1.5-.2.1.3.2.5.2.7 0 .4-.2.6-.6.6m-2.9-2.5l-.8-.7c0-.2.2-.4.3-.5v.1c.1.1.2.1.2.1h.1l.1-.1c.2.1.4.2.4.3.2.3.1.7-.2.8m-15-4.5c-.1 0-.3-.1-.3-.3-.1-.1 0-.3 0-.5l.6.2v.1c.2.2.1.5-.1.6h-.2m-9.5 13.4l-.2-.1c-.2-.1-.4-.1-.5-.3 0 0 0-.3.1-.4h.2c.2 0 .3.1.4.3.1.1 0 .3 0 .5"/><path fill="#FBFAF5" d="M413.62 363.98c-.3-.3-.6-.57-.9-.85.08-.17.2-.3.32-.45.08-.08.16-.12.27-.12h.1c.4 0 .5.02.6.42l.1.07h.1v-.23c.3.1.4.3.3.53v.06c0 .2-.1.3-.1.4 0 .1-.1.1-.1.1-.1.1-.2.1-.2.1m-2.5 1.2l-.5-.5.2-.1h.2c.2 0 .3.1.3.2s0 .4-.1.5m.1-4c-.1 0-.2 0-.2-.1s0-.2.1-.3h.2c.1 0 .2.1.3.2v.3c0 .1-.1.2-.1.2h-.1m-3.7-2.2c-.1 0-.2-.1-.3-.2-.1-.1 0-.3.2-.4h.1c.1 0 .3.1.3.2.1.1-.1.4-.2.4h-.1m2.1.8h-.2c-.1 0-.1-.2-.1-.3 0-.1.1-.1.2-.1h.1l.4.1c-.1.2-.2.4-.3.5h-.1m-6-3.2c-.1 0-.2-.1-.2-.2-.1-.2 0-.3.1-.4h.1c.1 0 .2 0 .4.1-.1.2-.1.3-.2.4h-.1m1.1 3.4l-.3-.1v-.3c.1.1.3.1.3.1.1.1 0 .2 0 .4"/></g><text fill="#000" fill-opacity=".38" font-family="Roboto-Italic, Roboto" font-size="12" font-style="italic" transform="translate(.03 322.207)"><tspan x="276.36" y="132.63">Recipient</tspan></text><g fill="#000"><path fill-opacity=".12" d="M477.17 493.95v1.45h-202.3v-1.45zm0 30.57v1.45h-202.3v-1.45zm0 30.56v1.45h-202.3v-1.45z"/><text fill-opacity=".38" font-family="Roboto-Italic, Roboto" font-size="12" font-style="italic" transform="translate(274.618 477.928)"><tspan x="1.77" y="11.46">Address</tspan></text></g><mask id="l" fill="#fff"><use xlink:href="#j"/></mask><use fill="#000" filter="url(#k)" xlink:href="#j"/><use fill="#48C1FB" xlink:href="#j"/><ellipse cx="479.24" cy="38.05" fill="#FDC281" mask="url(#l)" rx="79.18" ry="79.16"/><path fill="#000" fill-opacity=".32" d="M240.8 56.77h-2.97V54.1h1.38c-1.5-1.5-2.4-3.5-2.4-5.7 0-4.23 3.5-7.72 7.9-8.3v-8.25h3v8.28c4.4.7 7.7 4.13 7.7 8.26 0 2.2-.9 4.2-2.4 5.7h1.3v2.6h-2.9l2.9 49c.7 11 2.3 28.8 3.6 39.8l1.4 11.2c1 8.2 3.5 21.4 5.5 29.4l2.5 9.6h2.1v4.4H268c1.8 12.3 8.2 31 14.24 41.8l1.4 2.4h5.18v8.3H203v-8.4h5.4l1.13-2.2c5.77-11 12.25-29.8 14.5-42l.02-.2h-.86v-4.4h1.4c1.4-8.5 1.7-9.5 1.7-9.5 1.6-8.1 3.9-21.4 5.1-29.6l1.7-11.3c1.6-10.9 3.5-28.7 4.3-39.8 0 0 2.2-30.9 3.3-49.1zm-12.96 187.87h37.04l-9.77-29.4h-17.4c-1 6.2-7.5 23.56-9.8 29.4zm58.67 61v-.5c0-23.43-18.4-42.42-41.1-42.42s-41.2 19-41.2 42.42v.5h-31.1L203.7 253h84.36l30.58 52.67H286.5z" mask="url(#l)"/></g><path fill="#FFF" d="M667.93 175.43l-8.47-2.27c-4.28-1.15-8.7 1.4-9.84 5.7-1.15 4.27 1.4 8.7 5.68 9.84l77.2 20.68c4.28 1.15 8.7-1.4 9.84-5.7 1.15-4.27-1.4-8.7-5.68-9.84l-.24-.06c1.72-6.44-2.26-13.1-8.9-14.87-3.12-.8-6.28-.4-8.93.9-.6-4.8-4.1-9.1-9.3-10.5-6.5-1.7-13.1 1.9-15 8-2.3-2.5-5.6-4.6-9.6-5.6-6.9-1.8-13.5-.1-16.9 3.8zm372.67 50.62l7.16 1.92c3.2.86 5.1 4.18 4.24 7.42-.87 3.2-4.17 5.1-7.4 4.3l-59.26-15.9c-3.2-.9-5.1-4.2-4.24-7.5.87-3.3 4.17-5.2 7.4-4.3l2.55.6c1.77-6.4 10.2-9.7 18.87-7.4 5.73 1.5 10.14 5.1 12 9.2 2.44-.6 5.24-.6 8.08.2 6.25 1.7 10.58 6.4 10.6 11.1zm-106.8 49.92l7.15 1.9c3.2.87 5.1 4.2 4.25 7.44-.87 3.3-4.18 5.2-7.4 4.4l-59.26-15.9c-3.2-.8-5.12-4.2-4.25-7.4.8-3.2 4.1-5.1 7.3-4.3l2.5.7c1.7-6.4 10.2-9.7 18.8-7.3 5.7 1.6 10.1 5.2 12 9.3 2.4-.6 5.2-.5 8.1.2 6.2 1.7 10.5 6.4 10.6 11.2z"/></g></svg>