<svg xmlns="http://www.w3.org/2000/svg" width="648" height="407" xmlns:xlink="http://www.w3.org/1999/xlink" style="background:#FFFFFF"><defs><linearGradient id="a" x1="13.03%" x2="87.45%" y1="14.14%" y2="86.85%"><stop stop-color="#6200EA" offset="0%"/><stop stop-color="#BA68C8" offset="100%"/></linearGradient><filter id="b" width="106%" height="103%" x="-3.9%" y="-1.5%" filterUnits="objectBoundingBox"><feOffset dx="-4" in="SourceAlpha" result="shadowOffsetOuter1"/><feGaussianBlur stdDeviation="3" in="shadowOffsetOuter1" result="shadowBlurOuter1"/><feColorMatrix values="0 0 0 0 0 0 0 0 0 0 0 0 0 0 0 0 0 0 0.12 0" in="shadowBlurOuter1" result="shadowMatrixOuter1"/><feMerge><feMergeNode in="shadowMatrixOuter1"/><feMergeNode in="SourceGraphic"/></feMerge></filter><path id="d" d="M429.33 187.06h1.1c.83 0 1.5.68 1.5 1.5v62.14c0 .83-.67 1.5-1.5 1.5h-1.1v553.75c0 41.43-33.58 75-75 75H77.93c-41.45 0-75-33.57-75-75V332.1h-1.1c-.84 0-1.5-.67-1.5-1.5v-62.14c0-.83.65-1.5 1.5-1.5h1.1V252.2h-1.1c-.84 0-1.5-.67-1.5-1.5v-62.14c0-.83.65-1.5 1.5-1.5h1.1v-39.94h-1.1c-.84 0-1.5-.68-1.5-1.5V113c0-.83.65-1.5 1.5-1.5h1.1V75.35c0-41.43 33.56-75 75-75h276.4c41.42 0 75 33.57 75 75v111.7zm-400.35-79.9V772.4h374.3V107.17H28.98zm186.7 746.88c18.24 0 33-14.78 33-33 0-18.23-14.76-33-33-33-18.2 0-33 14.77-33 33 0 18.22 14.8 33 33 33zM147.96 62.88c3.84 0 6.95-3.1 6.95-6.95 0-3.84-3.1-6.95-6.9-6.95-3.8 0-6.9 3.1-6.9 6.95 0 3.84 3.1 6.95 7 6.95zm68.6-30.4c2.4 0 4.35-1.94 4.35-4.34s-1.9-4.34-4.3-4.34-4.3 1.94-4.3 4.34 2 4.34 4.4 4.34zM185.3 52.45c-1.92 0-3.48 1.56-3.48 3.48s1.55 3.47 3.47 3.47h62.5c1.9 0 3.4-1.56 3.4-3.47 0-1.92-1.6-3.48-3.5-3.48h-62.5z"/><filter id="c" width="101.4%" height="100.7%" x="-.7%" y="-.3%" filterUnits="objectBoundingBox"><feOffset in="SourceAlpha" result="shadowOffsetOuter1"/><feGaussianBlur stdDeviation="1" in="shadowOffsetOuter1" result="shadowBlurOuter1"/><feColorMatrix values="0 0 0 0 0 0 0 0 0 0 0 0 0 0 0 0 0 0 0.12 0" in="shadowBlurOuter1"/></filter><path id="e" d="M.37.28h375v667H.37z"/><path id="g" d="M32 0h343v48H32z"/><filter id="h" width="100.1%" height="101%" x="-.1%" y="-.5%" filterUnits="objectBoundingBox"><feOffset dy="-.5" in="SourceAlpha" result="shadowOffsetInner1"/><feComposite in="shadowOffsetInner1" in2="SourceAlpha" operator="arithmetic" k2="-1" k3="1" result="shadowInnerInner1"/><feColorMatrix values="0 0 0 0 0 0 0 0 0 0 0 0 0 0 0 0 0 0 0.12 0" in="shadowInnerInner1"/></filter><path id="i" d="M32 0h343v48H32z"/><filter id="j" width="100.1%" height="101%" x="-.1%" y="-.5%" filterUnits="objectBoundingBox"><feOffset dy="-.5" in="SourceAlpha" result="shadowOffsetInner1"/><feComposite in="shadowOffsetInner1" in2="SourceAlpha" operator="arithmetic" k2="-1" k3="1" result="shadowInnerInner1"/><feColorMatrix values="0 0 0 0 0 0 0 0 0 0 0 0 0 0 0 0 0 0 0.12 0" in="shadowInnerInner1"/></filter><path id="k" d="M32 0h343v48H32z"/><filter id="l" width="100.1%" height="101%" x="-.1%" y="-.5%" filterUnits="objectBoundingBox"><feOffset dy="-.5" in="SourceAlpha" result="shadowOffsetInner1"/><feComposite in="shadowOffsetInner1" in2="SourceAlpha" operator="arithmetic" k2="-1" k3="1" result="shadowInnerInner1"/><feColorMatrix values="0 0 0 0 0 0 0 0 0 0 0 0 0 0 0 0 0 0 0.12 0" in="shadowInnerInner1"/></filter><path id="n" d="M0 0h375v66H0z"/><filter id="m" width="101.9%" height="110.6%" x="-.9%" y="-3.8%" filterUnits="objectBoundingBox"><feOffset dy="1" in="SourceAlpha" result="shadowOffsetOuter1"/><feGaussianBlur stdDeviation="1" in="shadowOffsetOuter1" result="shadowBlurOuter1"/><feColorMatrix values="0 0 0 0 0 0 0 0 0 0 0 0 0 0 0 0 0 0 0.12 0" in="shadowBlurOuter1"/></filter><path id="o" d="M0 0h375v72H0z"/><filter id="p" width="100.1%" height="100.7%" x="-.1%" y="-.3%" filterUnits="objectBoundingBox"><feOffset dy="-.5" in="SourceAlpha" result="shadowOffsetInner1"/><feComposite in="shadowOffsetInner1" in2="SourceAlpha" operator="arithmetic" k2="-1" k3="1" result="shadowInnerInner1"/><feColorMatrix values="0 0 0 0 0 0 0 0 0 0 0 0 0 0 0 0 0 0 0.12 0" in="shadowInnerInner1"/></filter><rect id="q" width="345" height="3.89" x="16" y="48.65" rx="1.95"/><filter id="r" width="100.6%" height="151.4%" x="-.3%" y="-25.7%" filterUnits="objectBoundingBox"><feGaussianBlur stdDeviation=".5" in="SourceAlpha" result="shadowBlurInner1"/><feOffset dy="1" in="shadowBlurInner1" result="shadowOffsetInner1"/><feComposite in="shadowOffsetInner1" in2="SourceAlpha" operator="arithmetic" k2="-1" k3="1" result="shadowInnerInner1"/><feColorMatrix values="0 0 0 0 0 0 0 0 0 0 0 0 0 0 0 0 0 0 0.12 0" in="shadowInnerInner1"/></filter><ellipse id="t" cx="306" cy="49.62" rx="14" ry="13.62"/><filter id="s" width="167.9%" height="177.1%" x="-33.9%" y="-12.8%" filterUnits="objectBoundingBox"><feMorphology radius=".5" operator="dilate" in="SourceAlpha" result="shadowSpreadOuter1"/><feOffset dy="3" in="shadowSpreadOuter1" result="shadowOffsetOuter1"/><feGaussianBlur stdDeviation="1.5" in="shadowOffsetOuter1" result="shadowBlurOuter1"/><feComposite in="shadowBlurOuter1" in2="SourceAlpha" operator="out" result="shadowBlurOuter1"/><feColorMatrix values="0 0 0 0 0 0 0 0 0 0 0 0 0 0 0 0 0 0 0.05 0" in="shadowBlurOuter1" result="shadowMatrixOuter1"/><feMorphology radius=".5" operator="dilate" in="SourceAlpha" result="shadowSpreadOuter2"/><feOffset dy="2" in="shadowSpreadOuter2" result="shadowOffsetOuter2"/><feGaussianBlur stdDeviation="1" in="shadowOffsetOuter2" result="shadowBlurOuter2"/><feComposite in="shadowBlurOuter2" in2="SourceAlpha" operator="out" result="shadowBlurOuter2"/><feColorMatrix values="0 0 0 0 0 0 0 0 0 0 0 0 0 0 0 0 0 0 0.1 0" in="shadowBlurOuter2" result="shadowMatrixOuter2"/><feMorphology radius=".5" operator="dilate" in="SourceAlpha" result="shadowSpreadOuter3"/><feOffset dy="3" in="shadowSpreadOuter3" result="shadowOffsetOuter3"/><feGaussianBlur stdDeviation=".5" in="shadowOffsetOuter3" result="shadowBlurOuter3"/><feComposite in="shadowBlurOuter3" in2="SourceAlpha" operator="out" result="shadowBlurOuter3"/><feColorMatrix values="0 0 0 0 0 0 0 0 0 0 0 0 0 0 0 0 0 0 0.0510643116 0" in="shadowBlurOuter3" result="shadowMatrixOuter3"/><feMerge><feMergeNode in="shadowMatrixOuter1"/><feMergeNode in="shadowMatrixOuter2"/><feMergeNode in="shadowMatrixOuter3"/></feMerge></filter><ellipse id="v" cx="94" cy="49.62" rx="14" ry="13.62"/><filter id="u" width="167.9%" height="177.1%" x="-33.9%" y="-12.8%" filterUnits="objectBoundingBox"><feMorphology radius=".5" operator="dilate" in="SourceAlpha" result="shadowSpreadOuter1"/><feOffset dy="3" in="shadowSpreadOuter1" result="shadowOffsetOuter1"/><feGaussianBlur stdDeviation="1.5" in="shadowOffsetOuter1" result="shadowBlurOuter1"/><feComposite in="shadowBlurOuter1" in2="SourceAlpha" operator="out" result="shadowBlurOuter1"/><feColorMatrix values="0 0 0 0 0 0 0 0 0 0 0 0 0 0 0 0 0 0 0.05 0" in="shadowBlurOuter1" result="shadowMatrixOuter1"/><feMorphology radius=".5" operator="dilate" in="SourceAlpha" result="shadowSpreadOuter2"/><feOffset dy="2" in="shadowSpreadOuter2" result="shadowOffsetOuter2"/><feGaussianBlur stdDeviation="1" in="shadowOffsetOuter2" result="shadowBlurOuter2"/><feComposite in="shadowBlurOuter2" in2="SourceAlpha" operator="out" result="shadowBlurOuter2"/><feColorMatrix values="0 0 0 0 0 0 0 0 0 0 0 0 0 0 0 0 0 0 0.1 0" in="shadowBlurOuter2" result="shadowMatrixOuter2"/><feMorphology radius=".5" operator="dilate" in="SourceAlpha" result="shadowSpreadOuter3"/><feOffset dy="3" in="shadowSpreadOuter3" result="shadowOffsetOuter3"/><feGaussianBlur stdDeviation=".5" in="shadowOffsetOuter3" result="shadowBlurOuter3"/><feComposite in="shadowBlurOuter3" in2="SourceAlpha" operator="out" result="shadowBlurOuter3"/><feColorMatrix values="0 0 0 0 0 0 0 0 0 0 0 0 0 0 0 0 0 0 0.0510643116 0" in="shadowBlurOuter3" result="shadowMatrixOuter3"/><feMerge><feMergeNode in="shadowMatrixOuter1"/><feMergeNode in="shadowMatrixOuter2"/><feMergeNode in="shadowMatrixOuter3"/></feMerge></filter><filter id="w" width="106%" height="103%" x="-3.9%" y="-1.5%" filterUnits="objectBoundingBox"><feOffset dx="-4" in="SourceAlpha" result="shadowOffsetOuter1"/><feGaussianBlur stdDeviation="3" in="shadowOffsetOuter1" result="shadowBlurOuter1"/><feColorMatrix values="0 0 0 0 0 0 0 0 0 0 0 0 0 0 0 0 0 0 0.12 0" in="shadowBlurOuter1" result="shadowMatrixOuter1"/><feMerge><feMergeNode in="shadowMatrixOuter1"/><feMergeNode in="SourceGraphic"/></feMerge></filter><path id="y" d="M429.33 187.06h1.1c.83 0 1.5.68 1.5 1.5v62.14c0 .83-.67 1.5-1.5 1.5h-1.1v553.75c0 41.43-33.58 75-75 75H77.93c-41.45 0-75-33.57-75-75V332.1h-1.1c-.84 0-1.5-.67-1.5-1.5v-62.14c0-.83.65-1.5 1.5-1.5h1.1V252.2h-1.1c-.84 0-1.5-.67-1.5-1.5v-62.14c0-.83.65-1.5 1.5-1.5h1.1v-39.94h-1.1c-.84 0-1.5-.68-1.5-1.5V113c0-.83.65-1.5 1.5-1.5h1.1V75.35c0-41.43 33.56-75 75-75h276.4c41.42 0 75 33.57 75 75v111.7zm-400.35-79.9V772.4h374.3V107.17H28.98zm186.7 746.88c18.24 0 33-14.78 33-33 0-18.23-14.76-33-33-33-18.2 0-33 14.77-33 33 0 18.22 14.8 33 33 33zM147.96 62.88c3.84 0 6.95-3.1 6.95-6.95 0-3.84-3.1-6.95-6.9-6.95-3.8 0-6.9 3.1-6.9 6.95 0 3.84 3.1 6.95 7 6.95zm68.6-30.4c2.4 0 4.35-1.94 4.35-4.34s-1.9-4.34-4.3-4.34-4.3 1.94-4.3 4.34 2 4.34 4.4 4.34zM185.3 52.45c-1.92 0-3.48 1.56-3.48 3.48s1.55 3.47 3.47 3.47h62.5c1.9 0 3.4-1.56 3.4-3.47 0-1.92-1.6-3.48-3.5-3.48h-62.5z"/><filter id="x" width="101.4%" height="100.7%" x="-.7%" y="-.3%" filterUnits="objectBoundingBox"><feOffset in="SourceAlpha" result="shadowOffsetOuter1"/><feGaussianBlur stdDeviation="1" in="shadowOffsetOuter1" result="shadowBlurOuter1"/><feColorMatrix values="0 0 0 0 0 0 0 0 0 0 0 0 0 0 0 0 0 0 0.12 0" in="shadowBlurOuter1"/></filter><path id="z" d="M.37.28h375v667H.37z"/><path id="B" d="M0 0h375v667H0z"/><rect id="D" width="359" height="80" rx="2"/><filter id="E" width="103.9%" height="117.5%" x="-1.9%" y="-6.2%" filterUnits="objectBoundingBox"><feOffset dy="2" in="SourceAlpha" result="shadowOffsetOuter1"/><feGaussianBlur stdDeviation="2" in="shadowOffsetOuter1" result="shadowBlurOuter1"/><feColorMatrix values="0 0 0 0 0 0 0 0 0 0 0 0 0 0 0 0 0 0 0.18 0" in="shadowBlurOuter1"/></filter><path id="G" d="M0 0h4v8H0z"/><rect id="I" width="359" height="80" rx="2"/><filter id="J" width="103.9%" height="117.5%" x="-1.9%" y="-6.2%" filterUnits="objectBoundingBox"><feOffset dy="2" in="SourceAlpha" result="shadowOffsetOuter1"/><feGaussianBlur stdDeviation="2" in="shadowOffsetOuter1" result="shadowBlurOuter1"/><feColorMatrix values="0 0 0 0 0 0 0 0 0 0 0 0 0 0 0 0 0 0 0.18 0" in="shadowBlurOuter1"/></filter><rect id="L" width="359" height="80" rx="2"/><filter id="M" width="103.9%" height="117.5%" x="-1.9%" y="-6.2%" filterUnits="objectBoundingBox"><feOffset dy="2" in="SourceAlpha" result="shadowOffsetOuter1"/><feGaussianBlur stdDeviation="2" in="shadowOffsetOuter1" result="shadowBlurOuter1"/><feColorMatrix values="0 0 0 0 0 0 0 0 0 0 0 0 0 0 0 0 0 0 0.18 0" in="shadowBlurOuter1"/></filter><path id="P" d="M0 0h375v122H0z"/><filter id="O" width="101.9%" height="105.7%" x="-.9%" y="-2%" filterUnits="objectBoundingBox"><feOffset dy="1" in="SourceAlpha" result="shadowOffsetOuter1"/><feGaussianBlur stdDeviation="1" in="shadowOffsetOuter1" result="shadowBlurOuter1"/><feColorMatrix values="0 0 0 0 0 0 0 0 0 0 0 0 0 0 0 0 0 0 0.18 0" in="shadowBlurOuter1"/></filter><rect id="Q" width="359" height="80" rx="2"/><filter id="R" width="103.9%" height="117.5%" x="-1.9%" y="-6.2%" filterUnits="objectBoundingBox"><feOffset dy="2" in="SourceAlpha" result="shadowOffsetOuter1"/><feGaussianBlur stdDeviation="2" in="shadowOffsetOuter1" result="shadowBlurOuter1"/><feColorMatrix values="0 0 0 0 0 0 0 0 0 0 0 0 0 0 0 0 0 0 0.18 0" in="shadowBlurOuter1"/></filter><path id="T" d="M0 0h4v8H0z"/></defs><g fill="none" fill-rule="evenodd"><path fill="url(#a)" d="M-4-88h682v580H-4z"/><g filter="url(#b)" transform="rotate(30 324.667 -353.386)"><rect width="394" height="847" x="19" y="18" fill="#E6ECF0" rx="37"/><use fill="#000" filter="url(#c)" xlink:href="#d"/><use fill="#FFF" xlink:href="#d"/><g transform="translate(29 108)"><mask id="f" fill="#fff"><use xlink:href="#e"/></mask><use fill="#F5F5F5" xlink:href="#e"/><g mask="url(#f)"><path fill="#F5F5F5" d="M.37 66.28h375v40H.37z"/><path fill="#FFF" d="M.37 154.28h375v48H.37z"/><g transform="translate(.37 154.28)"><use fill="#FFF" xlink:href="#g"/><use fill="#000" filter="url(#h)" xlink:href="#g"/></g><text fill="#000" fill-opacity=".87" font-family="SFUIText-Regular, SF UI Text" font-size="15" transform="translate(.37 154.28)"><tspan x="32" y="28">Employer rating</tspan></text><path d="M335.37 166.28h24v24h-24"/><path fill="#000" fill-opacity=".38" fill-rule="nonzero" d="M347.37 168.28c-5.52 0-10 4.48-10 10s4.48 10 10 10 10-4.48 10-10-4.48-10-10-10zm0 18c-4.42 0-8-3.58-8-8s3.58-8 8-8 8 3.58 8 8-3.58 8-8 8z"/><path fill="#FFF" d="M.37 106.28h375v48H.37z"/><g transform="translate(.37 106.28)"><use fill="#FFF" xlink:href="#i"/><use fill="#000" filter="url(#j)" xlink:href="#i"/></g><text fill="#000" fill-opacity=".87" font-family="SFUIText-Regular, SF UI Text" font-size="15" transform="translate(.37 106.28)"><tspan x="32" y="28">Start time</tspan></text><path d="M335.37 118.28h24v24h-24"/><path fill="#F7B05A" fill-rule="nonzero" d="M347.37 125.28c-2.76 0-5 2.24-5 5s2.24 5 5 5 5-2.24 5-5-2.24-5-5-5zm0-5c-5.52 0-10 4.48-10 10s4.48 10 10 10 10-4.48 10-10-4.48-10-10-10zm0 18c-4.42 0-8-3.58-8-8s3.58-8 8-8 8 3.58 8 8-3.58 8-8 8z"/><path fill="#FFF" d="M.37 202.28h375v48H.37z"/><g transform="translate(.37 202.28)"><use fill="#FFF" xlink:href="#k"/><use fill="#000" filter="url(#l)" xlink:href="#k"/></g><text fill="#000" fill-opacity=".87" font-family="SFUIText-Regular, SF UI Text" font-size="15" transform="translate(.37 202.28)"><tspan x="32" y="28">Wages high-low</tspan></text><path d="M335.37 214.28h24v24h-24"/><path fill="#000" fill-opacity=".38" fill-rule="nonzero" d="M347.37 216.28c-5.52 0-10 4.48-10 10s4.48 10 10 10 10-4.48 10-10-4.48-10-10-10zm0 18c-4.42 0-8-3.58-8-8s3.58-8 8-8 8 3.58 8 8-3.58 8-8 8z"/><path d="M.37 66.28h375v40H.37z"/><text fill="#000" fill-opacity=".54" font-family="SFUIText-Medium, SF UI Text" font-size="14" font-weight="400" transform="translate(.37 66.28)"><tspan x="16" y="25">Sort by</tspan></text><g transform="translate(.37 .28)"><use fill="#000" filter="url(#m)" xlink:href="#n"/><use fill="#FFF" xlink:href="#n"/></g><text fill="#000" fill-opacity=".87" font-family="SFUIDisplay-Medium, SF UI Display" font-size="20" font-weight="400" transform="translate(.37 .28)"><tspan x="161.15" y="47">Filters</tspan></text><text fill="#F7B05A" font-family="SFUIText-Medium, SF UI Text" font-size="14" font-weight="400" letter-spacing=".01" transform="translate(.37 .28)"><tspan x="322" y="47">SAVE</tspan></text><text fill="#000" fill-opacity=".54" font-family="SFUIText-Medium, SF UI Text" font-size="14" font-weight="400" transform="translate(.37 .28)"><tspan x="16" y="47">Cancel</tspan></text><g fill="#030303"><path d="M9.62 12.63c-1.52 0-2.75-1.17-2.75-2.6 0-1.46 1.23-2.63 2.75-2.63s2.75 1.17 2.75 2.62c0 1.44-1.23 2.6-2.75 2.6zm7 0c-1.52 0-2.75-1.17-2.75-2.6 0-1.46 1.23-2.63 2.75-2.63s2.75 1.17 2.75 2.62c0 1.44-1.23 2.6-2.75 2.6zm7 0c-1.52 0-2.75-1.17-2.75-2.6 0-1.46 1.23-2.63 2.75-2.63s2.75 1.17 2.75 2.62c0 1.44-1.23 2.6-2.75 2.6zm7 0c-1.52 0-2.75-1.17-2.75-2.6 0-1.46 1.23-2.63 2.75-2.63s2.75 1.17 2.75 2.62c0 1.44-1.23 2.6-2.75 2.6zm7 0c-1.52 0-2.75-1.17-2.75-2.6 0-1.46 1.23-2.63 2.75-2.63s2.75 1.17 2.75 2.62c0 1.44-1.23 2.6-2.75 2.6z"/><text font-family="Roboto-Regular, Roboto" font-size="12" transform="translate(.37 .28)"><tspan x="44" y="14.33">Sketch</tspan></text><path d="M97 13.52l-2.1 1.96-2.17-2c.52-.54 1.28-.88 2.13-.88.86 0 1.64.36 2.15.92zm2.2-2l-1.1 1c-.8-.82-1.95-1.34-3.24-1.34-1.28 0-2.42.5-3.22 1.3l-1.1-1c1.1-1.05 2.62-1.7 4.32-1.7 1.7 0 3.25.66 4.33 1.73zm2.17-2.02l-1.1 1c-1.34-1.3-3.27-2.14-5.4-2.14-2.13 0-4.04.82-5.4 2.13l-1.1-1c1.63-1.6 3.93-2.6 6.5-2.6 2.55 0 4.86 1 6.5 2.5z"/><text font-family="Roboto-Regular, Roboto" font-size="12" transform="translate(.37 .28)"><tspan x="161.93" y="14.75">12:41 AM</tspan></text><text font-family="Roboto-Regular, Roboto" font-size="12" transform="translate(.37 .28)"><tspan x="313" y="15.28">100%</tspan></text><path d="M346.86 5.5h19.52c.82 0 1.5.67 1.5 1.5v6.04c0 .8-.68 1.5-1.5 1.5h-19.52c-.82 0-1.5-.68-1.5-1.5V7c0-.82.68-1.5 1.5-1.5zm21.5 2.85h.76c.42 0 .75.34.75.76V11c0 .42-.34.75-.75.75h-.75v-3.4zM346.9 6c-.56 0-1 .46-1 1v6.08c0 .55.44 1 1 1h19.48c.56 0 1-.46 1-1v-6.1c0-.54-.44-.98-1-.98H346.9zm0 .48h19.48c.28 0 .5.22.5.5v6.12c0 .28-.22.5-.5.5H346.9c-.28 0-.5-.22-.5-.5V6.96c0-.28.22-.5.5-.5z"/></g><g transform="translate(.37 290.28)"><use fill="#FFF" xlink:href="#o"/><use fill="#000" filter="url(#p)" xlink:href="#o"/><g fill="#000"><use fill-opacity=".12" xlink:href="#q"/><use filter="url(#r)" xlink:href="#q"/></g><rect width="216.5" height="3.89" x="89" y="48.65" fill="#FAC98D" rx="1.95"/><use fill="#000" filter="url(#s)" xlink:href="#t"/><use fill="#FFF" xlink:href="#t"/><ellipse cx="306" cy="49.62" stroke="#000" stroke-opacity=".1" stroke-width=".5" rx="14.25" ry="13.87"/><use fill="#000" filter="url(#u)" xlink:href="#v"/><use fill="#FFF" xlink:href="#v"/><ellipse cx="94" cy="49.62" stroke="#000" stroke-opacity=".1" stroke-width=".5" rx="14.25" ry="13.87"/><text fill="#030303" font-family="SFUIText-Medium, SF UI Text" font-size="15" font-weight="400" letter-spacing="-.24"><tspan x="16" y="27.62">£8.00</tspan></text><text fill="#030303" font-family="SFUIText-Medium, SF UI Text" font-size="15" font-weight="400" letter-spacing="-.24"><tspan x="310.18" y="26.65">£14.00</tspan></text></g><path d="M.37 250.28h375v40H.37z"/><text fill="#000" fill-opacity=".54" font-family="SFUIText-Medium, SF UI Text" font-size="14" font-weight="400" transform="translate(.37 250.28)"><tspan x="16" y="25">Filter by pay</tspan></text></g></g></g><g filter="url(#w)" transform="rotate(30 346.026 580.814)"><rect width="394" height="847" x="19" y="18" fill="#E6ECF0" rx="37"/><use fill="#000" filter="url(#x)" xlink:href="#y"/><use fill="#FFF" xlink:href="#y"/><g transform="translate(29 108)"><mask id="A" fill="#fff"><use xlink:href="#z"/></mask><use fill="#F5F5F5" xlink:href="#z"/><g mask="url(#A)"><mask id="C" fill="#fff"><use xlink:href="#B"/></mask><use fill="#F5F5F5" xlink:href="#B"/><g mask="url(#C)"><g transform="translate(8 130)"><mask id="F" fill="#fff"><use xlink:href="#D"/></mask><use fill="#000" filter="url(#E)" xlink:href="#D"/><use fill="#FFF" xlink:href="#D"/><text fill="#000" fill-opacity=".87" mask="url(#F)" font-family="SFUIText-Medium, SF UI Text" font-size="15" font-weight="400"><tspan x="16" y="22">Bravi ragazzi</tspan></text><text fill="#001626" mask="url(#F)" font-family="SFUIText-Semibold, SF UI Text" font-size="18" font-weight="500"><tspan x="277.4" y="27">£8.50</tspan></text><text fill="#000" fill-opacity=".54" mask="url(#F)" font-family="SFUIText-Medium, SF UI Text" font-size="14" font-weight="400"><tspan x="16" y="46">9:00 - 14:00</tspan></text><path fill="#EF2721" fill-rule="nonzero" d="M9.97 7.53L5.8 5.67h5.9V4.43H5.63l3.07-1.5h3V1.76h-3L4.97 0H2.1l4 1.76H0v1.2h6.08L2.9 4.42H0v1.24h3.12l4 1.86h2.85" transform="translate(250 40.01)" mask="url(#F)"/><text fill="#000" fill-opacity=".87" mask="url(#F)" font-family="SFUIDisplay-Medium, SF UI Display" font-size="12" font-weight="400"><tspan x="270.04" y="48">Streatham hill </tspan></text><text fill="#000" fill-opacity=".54" mask="url(#F)" font-family="SFUIDisplay-Regular, SF UI Display" font-size="10"><tspan x="289.17" y="64">Waiting staff</tspan></text><path fill="#16A085" d="M0 0h4v80H0z" mask="url(#F)"/><text fill="#000" fill-opacity=".28" mask="url(#F)" font-family="SFUIText-Regular, SF UI Text" font-size="8"><tspan x="332.42" y="28">/hr</tspan></text><text fill="#FFAF4F" mask="url(#F)" font-family="SFUIText-Regular, SF UI Text" font-size="10"><tspan x="16" y="63">4.6</tspan></text><g mask="url(#F)"><path fill="#FFAF4F" d="M40 62l-2.35 1.24.45-2.62-1.9-1.86 2.62-.38L40 56l1.18 2.38 2.62.38-1.9 1.86.45 2.62M52 62l-2.35 1.24.45-2.62-1.9-1.86 2.62-.38L52 56l1.18 2.38 2.62.38-1.9 1.86.45 2.62M64 62l-2.35 1.24.45-2.62-1.9-1.86 2.62-.38L64 56l1.18 2.38 2.62.38-1.9 1.86.45 2.62M76 62l-2.35 1.24.45-2.62-1.9-1.86 2.62-.38L76 56l1.18 2.38 2.62.38-1.9 1.86.45 2.62"/><g transform="translate(84 56)"><mask id="H" fill="#fff"><use xlink:href="#G"/></mask><use fill="#FFF" xlink:href="#G"/><path fill="#FFAF4F" d="M4 6L1.65 7.24l.45-2.62L.2 2.76l2.62-.38L4 0l1.18 2.38 2.62.38-1.9 1.86.45 2.62" mask="url(#H)"/></g></g></g><g transform="translate(8 306)"><mask id="K" fill="#fff"><use xlink:href="#I"/></mask><use fill="#000" filter="url(#J)" xlink:href="#I"/><use fill="#FFF" xlink:href="#I"/><text fill="#000" fill-opacity=".87" mask="url(#K)" font-family="SFUIText-Medium, SF UI Text" font-size="15" font-weight="400"><tspan x="16" y="22">Franco manca</tspan></text><text fill="#001626" mask="url(#K)" font-family="SFUIText-Semibold, SF UI Text" font-size="18" font-weight="500"><tspan x="277.4" y="27">£8.50</tspan></text><text fill="#000" fill-opacity=".54" mask="url(#K)" font-family="SFUIText-Medium, SF UI Text" font-size="14" font-weight="400"><tspan x="16" y="46">14:00 - 17:00</tspan></text><g fill-rule="nonzero" mask="url(#K)"><path fill="#EF7600" d="M244 49c-2.76 0-5-2.24-5-5s2.24-5 5-5 5 2.24 5 5-2.24 5-5 5zm0-1.73c1.8 0 3.27-1.47 3.27-3.27s-1.47-3.27-3.27-3.27-3.27 1.47-3.27 3.27 1.47 3.27 3.27 3.27z"/><path fill="#004193" d="M238 45h12v-2h-12"/></g><text fill="#000" fill-opacity=".87" mask="url(#K)" font-family="SFUIDisplay-Medium, SF UI Display" font-size="12" font-weight="400"><tspan x="255.84" y="48">Shepherds bush</tspan></text><text fill="#000" fill-opacity=".54" mask="url(#K)" font-family="SFUIDisplay-Regular, SF UI Display" font-size="10"><tspan x="289.17" y="64">Waiting staff</tspan></text><path fill="#16A085" d="M0 0h4v80H0z" mask="url(#K)"/><text fill="#000" fill-opacity=".28" mask="url(#K)" font-family="SFUIText-Regular, SF UI Text" font-size="8"><tspan x="332.42" y="28">/hr</tspan></text><text fill="#FFAF4F" mask="url(#K)" font-family="SFUIText-Regular, SF UI Text" font-size="10"><tspan x="16" y="63">3.2</tspan></text><path fill="#FFAF4F" d="M39 62l-2.35 1.24.45-2.62-1.9-1.86 2.62-.38L39 56l1.18 2.38 2.62.38-1.9 1.86.45 2.62M51 62l-2.35 1.24.45-2.62-1.9-1.86 2.62-.38L51 56l1.18 2.38 2.62.38-1.9 1.86.45 2.62M63 62l-2.35 1.24.45-2.62-1.9-1.86 2.62-.38L63 56l1.18 2.38 2.62.38-1.9 1.86.45 2.62" mask="url(#K)"/></g><g transform="translate(8 218)"><mask id="N" fill="#fff"><use xlink:href="#L"/></mask><use fill="#000" filter="url(#M)" xlink:href="#L"/><use fill="#FFF" xlink:href="#L"/><text fill="#000" fill-opacity=".87" mask="url(#N)" font-family="SFUIText-Medium, SF UI Text" font-size="15" font-weight="400"><tspan x="16" y="22">£9.00</tspan></text><text fill="#001626" mask="url(#N)" font-family="SFUIText-Semibold, SF UI Text" font-size="18" font-weight="500"><tspan x="277.4" y="27">£8.50</tspan></text><text fill="#000" fill-opacity=".54" mask="url(#N)" font-family="SFUIText-Medium, SF UI Text" font-size="14" font-weight="400"><tspan x="16" y="46">16:00 - 21:00</tspan></text><g fill-rule="nonzero" mask="url(#N)"><path fill="#EF7600" d="M294 49c-2.76 0-5-2.24-5-5s2.24-5 5-5 5 2.24 5 5-2.24 5-5 5zm0-1.73c1.8 0 3.27-1.47 3.27-3.27s-1.47-3.27-3.27-3.27-3.27 1.47-3.27 3.27 1.47 3.27 3.27 3.27z"/><path fill="#004193" d="M288 45h12v-2h-12"/></g><text fill="#000" fill-opacity=".87" mask="url(#N)" font-family="SFUIDisplay-Medium, SF UI Display" font-size="12" font-weight="400"><tspan x="305.49" y="48">Brixton</tspan></text><text fill="#000" fill-opacity=".54" mask="url(#N)" font-family="SFUIDisplay-Regular, SF UI Display" font-size="10"><tspan x="305.07" y="64">Bar work</tspan></text><path fill="#77A0C3" d="M0 0h4v80H0z" mask="url(#N)"/><text fill="#000" fill-opacity=".28" mask="url(#N)" font-family="SFUIText-Regular, SF UI Text" font-size="8"><tspan x="332.42" y="28">/hr</tspan></text><text fill="#FFAF4F" mask="url(#N)" font-family="SFUIText-Regular, SF UI Text" font-size="10"><tspan x="16" y="63">4.8</tspan></text><path fill="#FFAF4F" d="M40 62l-2.35 1.24.45-2.62-1.9-1.86 2.62-.38L40 56l1.18 2.38 2.62.38-1.9 1.86.45 2.62M52 62l-2.35 1.24.45-2.62-1.9-1.86 2.62-.38L52 56l1.18 2.38 2.62.38-1.9 1.86.45 2.62M64 62l-2.35 1.24.45-2.62-1.9-1.86 2.62-.38L64 56l1.18 2.38 2.62.38-1.9 1.86.45 2.62M76 62l-2.35 1.24.45-2.62-1.9-1.86 2.62-.38L76 56l1.18 2.38 2.62.38-1.9 1.86.45 2.62M88 62l-2.35 1.24.45-2.62-1.9-1.86 2.62-.38L88 56l1.18 2.38 2.62.38-1.9 1.86.45 2.62" mask="url(#N)"/></g><use fill="#000" filter="url(#O)" xlink:href="#P"/><use fill="#FFF" xlink:href="#P"/><path d="M0 18.77h375v45.05H0z"/><path d="M16 30.03h24v23H16z"/><path fill="#000" fill-opacity=".38" d="M38 49.76l-1.4 1.35-4.26-4 1.42-1.3 4.24 4zm-12-4.4c-3.3 0-6-2.57-6-5.75 0-3.1 2.7-5.7 6-5.7s6 2.6 6 5.8c0 3.2-2.7 5.8-6 5.8zm0-13.4c-4.42 0-8 3.42-8 7.65 0 4.3 3.58 7.7 8 7.7s8-3.4 8-7.6c0-4.2-3.58-7.6-8-7.6z"/><path d="M335 30.03h24v23h-24z"/><path fill="#000" fill-opacity=".38" d="M348 41.53v3.83h-2v-3.83l-5.54-7.67h13.08L348 41.53zm-2 7.67h2v-1.92h-2v1.92zm-9-17.25l7 10.4v8.76h6v-8.7l7-10.4h-20z"/><text fill="#000" fill-opacity=".87" font-family="SFUIText-Medium, SF UI Text" font-size="15" font-weight="400" transform="translate(0 18.77)"><tspan x="145.89" y="24.52">Shifts (Jan)</tspan></text><path d="M0 61.94h375V122H0z"/><text fill="#000" fill-opacity=".54" font-family="SFUIText-Semibold, SF UI Text" font-size="15" font-weight="500" transform="translate(16 86.338)"><tspan x="321" y="17.75">28</tspan></text><text fill="#000" fill-opacity=".54" font-family="SFUIText-Semibold, SF UI Text" font-size="15" font-weight="500" transform="translate(16 86.338)"><tspan x="0" y="16.82">22</tspan></text><text fill="#000" fill-opacity=".54" font-family="SFUIText-Semibold, SF UI Text" font-size="15" font-weight="500" transform="translate(16 86.338)"><tspan x="53.5" y="17.75">23</tspan></text><path fill="#F7B05A" d="M179.43 98.1v.02h1.77v-.03c0-1.1.75-1.7 1.85-1.7 1.04 0 1.8.6 1.8 1.5 0 .7-.35 1.2-1.8 2.6l-3.52 3.3v1.2h7.34v-1.5h-4.75v-.1l2.2-2.1c1.8-1.7 2.4-2.6 2.4-3.6 0-1.7-1.52-2.9-3.6-2.9-2.18 0-3.7 1.3-3.7 3.13zm13.35 7.25c2.34 0 3.92-1.4 3.92-3.48 0-1.95-1.42-3.33-3.43-3.33-1.02 0-1.77.34-2.23.93h-.13l.3-2.78h4.9v-1.5h-6.3l-.5 5.7h1.7c.4-.7 1.1-1 1.97-1 1.2 0 2.07.8 2.07 2 0 1.1-.84 1.9-2.1 1.9-1.1 0-1.9-.6-2.02-1.5H189c.07 1.7 1.6 3 3.78 3z"/><text fill="#000" fill-opacity=".54" font-family="SFUIText-Semibold, SF UI Text" font-size="15" font-weight="500" transform="translate(16 86.338)"><tspan x="214" y="17.75">26 </tspan></text><text fill="#000" fill-opacity=".54" font-family="SFUIText-Semibold, SF UI Text" font-size="15" font-weight="500" transform="translate(16 86.338)"><tspan x="267.5" y="17.75">27</tspan></text><text fill="#000" fill-opacity=".54" font-family="SFUIText-Semibold, SF UI Text" font-size="15" font-weight="500" transform="translate(16 86.338)"><tspan x="107" y="17.75">24</tspan></text><path fill="#F7B05A" fill-rule="nonzero" d="M188 114.5c-8.28 0-15-6.3-15-14.1 0-7.76 6.72-14.06 15-14.06 8.28 0 15 6.3 15 14.07 0 7.8-6.72 14.1-15 14.1zm0-1.9c7.18 0 13-5.45 13-12.2 0-6.72-5.82-12.2-13-12.2s-13 5.48-13 12.2c0 6.75 5.82 12.2 13 12.2z"/><g fill="#000" fill-opacity=".54" font-family="SFUIText-Regular, SF UI Text" font-size="12"><text transform="translate(16 66.63)"><tspan x="321" y="11">T</tspan></text><text transform="translate(16 66.63)"><tspan x="0" y="11">F</tspan></text><text transform="translate(16 66.63)"><tspan x="53.5" y="11">S</tspan></text><text transform="translate(16 66.63)"><tspan x="107" y="11">S</tspan></text><text transform="translate(16 66.63)"><tspan x="166.76" y="11">M</tspan></text><text transform="translate(16 66.63)"><tspan x="214" y="11">T</tspan></text><text transform="translate(16 66.63)"><tspan x="267.5" y="11">W</tspan></text></g><g fill="#030303"><path d="M9.25 11.7c-1.52 0-2.75-1.1-2.75-2.47s1.23-2.48 2.75-2.48S12 7.85 12 9.22s-1.23 2.48-2.75 2.48zm7 0c-1.52 0-2.75-1.1-2.75-2.47s1.23-2.48 2.75-2.48S19 7.85 19 9.22s-1.23 2.48-2.75 2.48zm7 0c-1.52 0-2.75-1.1-2.75-2.47s1.23-2.48 2.75-2.48S26 7.85 26 9.22s-1.23 2.48-2.75 2.48zm7 0c-1.52 0-2.75-1.1-2.75-2.47s1.23-2.48 2.75-2.48S33 7.85 33 9.22s-1.23 2.48-2.75 2.48zm7 0c-1.52 0-2.75-1.1-2.75-2.47s1.23-2.48 2.75-2.48S40 7.85 40 9.22s-1.23 2.48-2.75 2.48z"/><text font-family="Roboto-Regular, Roboto" font-size="12"><tspan x="44" y="13.67">Sketch</tspan></text><path d="M96.64 12.54l-2.12 1.86-2.16-1.9c.52-.5 1.28-.83 2.13-.83.8 0 1.6.34 2.1.87zm2.18-1.9l-1.1.95c-.78-.8-1.94-1.3-3.23-1.3-1.3 0-2.5.4-3.3 1.2l-1.1-1c1.1-1 2.6-1.6 4.3-1.6 1.7 0 3.2.6 4.3 1.6zm2.18-1.9l-1.1.95c-1.35-1.3-3.27-2.1-5.4-2.1-2.14 0-4.05.8-5.4 2L88 8.7c1.64-1.47 3.94-2.4 6.5-2.4 2.55 0 4.86.94 6.5 2.44z"/><text font-family="Roboto-Regular, Roboto" font-size="12"><tspan x="161.93" y="14">12:41 AM</tspan></text><text font-family="Roboto-Regular, Roboto" font-size="12"><tspan x="313" y="15.05">100%</tspan></text><path d="M346.5 4.95H366c.83 0 1.5.68 1.5 1.5V12c0 .83-.67 1.5-1.5 1.5h-19.5c-.83 0-1.5-.68-1.5-1.5V6.45c0-.84.67-1.5 1.5-1.5zm21.5 2.7h.75c.42 0 .75.33.75.75v1.65c0 .4-.34.75-.75.75H368V7.65zM346.5 5.4c-.55 0-1 .46-1 1v5.65c0 .55.45 1 1 1H366c.55 0 1-.46 1-1V6.4c0-.55-.45-1-1-1h-19.5zm0 .45H366c.27 0 .5.23.5.5v5.74c0 .2-.23.5-.5.5h-19.5c-.27 0-.5-.3-.5-.5V6.3c0-.3.23-.5.5-.5z"/></g><g transform="translate(8 394)"><mask id="S" fill="#fff"><use xlink:href="#Q"/></mask><use fill="#000" filter="url(#R)" xlink:href="#Q"/><use fill="#FFF" xlink:href="#Q"/><text fill="#000" fill-opacity=".87" mask="url(#S)" font-family="SFUIText-Medium, SF UI Text" font-size="15" font-weight="400"><tspan x="16" y="22">Bravi ragazzi</tspan></text><text fill="#001626" mask="url(#S)" font-family="SFUIText-Semibold, SF UI Text" font-size="18" font-weight="500"><tspan x="277.4" y="27">£8.50</tspan></text><text fill="#000" fill-opacity=".54" mask="url(#S)" font-family="SFUIText-Medium, SF UI Text" font-size="14" font-weight="400"><tspan x="16" y="46">12:00 -16:00</tspan></text><path fill="#EF2721" fill-rule="nonzero" d="M9.97 7.53L5.8 5.67h5.9V4.43H5.63l3.07-1.5h3V1.76h-3L4.97 0H2.1l4 1.76H0v1.2h6.08L2.9 4.42H0v1.24h3.12l4 1.86h2.85" transform="translate(250 40.01)" mask="url(#S)"/><text fill="#000" fill-opacity=".87" mask="url(#S)" font-family="SFUIDisplay-Medium, SF UI Display" font-size="12" font-weight="400"><tspan x="270.04" y="48">Streatham hill </tspan></text><text fill="#000" fill-opacity=".54" mask="url(#S)" font-family="SFUIDisplay-Regular, SF UI Display" font-size="10"><tspan x="305.07" y="64">Bar work</tspan></text><path fill="#77A0C3" d="M0 0h4v80H0z" mask="url(#S)"/><text fill="#000" fill-opacity=".28" mask="url(#S)" font-family="SFUIText-Regular, SF UI Text" font-size="8"><tspan x="332.42" y="28">/hr</tspan></text><text fill="#FFAF4F" mask="url(#S)" font-family="SFUIText-Regular, SF UI Text" font-size="10"><tspan x="16" y="63">3.8</tspan></text><g mask="url(#S)"><path fill="#FFAF4F" d="M39 62l-2.35 1.24.45-2.62-1.9-1.86 2.62-.38L39 56l1.18 2.38 2.62.38-1.9 1.86.45 2.62M51 62l-2.35 1.24.45-2.62-1.9-1.86 2.62-.38L51 56l1.18 2.38 2.62.38-1.9 1.86.45 2.62M63 62l-2.35 1.24.45-2.62-1.9-1.86 2.62-.38L63 56l1.18 2.38 2.62.38-1.9 1.86.45 2.62"/><g transform="translate(71 56)"><mask id="U" fill="#fff"><use xlink:href="#T"/></mask><use fill="#FFF" xlink:href="#T"/><path fill="#FFAF4F" d="M4 6L1.65 7.24l.45-2.62L.2 2.76l2.62-.38L4 0l1.18 2.38 2.62.38-1.9 1.86.45 2.62" mask="url(#U)"/></g></g></g></g></g></g></g></g></svg>