<svg xmlns="http://www.w3.org/2000/svg" width="1280" height="800" style="background:#4C7EE1"><defs><filter id="a" width="103.6%" height="104.8%" x="-1.8%" y="-2.1%" filterUnits="objectBoundingBox"><feOffset dy="1" in="SourceAlpha" result="shadowOffsetOuter1"/><feGaussianBlur stdDeviation="2.5" in="shadowOffsetOuter1" result="shadowBlurOuter1"/><feColorMatrix values="0 0 0 0 0 0 0 0 0 0 0 0 0 0 0 0 0 0 0.12 0" in="shadowBlurOuter1" result="shadowMatrixOuter1"/><feMerge><feMergeNode in="shadowMatrixOuter1"/><feMergeNode in="SourceGraphic"/></feMerge></filter></defs><g fill="none" fill-rule="evenodd"><text fill="#FFF" font-family="Roboto-Medium, Roboto" font-size="72" font-weight="400"><tspan x="426.32" y="629">Partly Cloudy</tspan></text><text fill="#FFF" font-family="Roboto-Medium, Roboto" font-size="72" font-weight="400"><tspan x="585.8" y="738">17°</tspan></text><g fill-rule="nonzero" filter="url(#a)" transform="translate(415 133)"><path fill="#020202" d="M241.7 92.97c0 24.34 17.93 44.28 43.2 44.28h90.8c37.6 0 65.53-29.9 65.53-66.57 0-36.66-199.52-2.05-199.52 22.3z" opacity=".02"/><path fill="#020202" d="M241.4 92.38c0 24.34 17.94 44.28 42.9 44.28h90.8c37.62 0 65.54-29.9 65.54-66.57.3-36.97-199.23-2.07-199.23 22.27z" opacity=".02"/><path fill="#020202" d="M241.7 91.5c0 24.34 17.93 44.28 43.2 44.28h90.8c37.6 0 65.53-29.9 65.53-66.57 0-36.64-199.52-2.03-199.52 22.3z" opacity=".02"/><path fill="#020202" d="M241.4 91.8c0 24.33 17.94 44.28 43.2 44.28h90.8c37.62 0 65.53-29.92 65.53-66.58 0-36.65-199.52-2.05-199.52 22.3z" opacity=".02"/><path fill="#020202" d="M240.82 91.2c0 24.35 17.93 44.3 43.2 44.3h90.8c37.6 0 64.64-29.92 64.64-66.87.3-36.37-198.64-1.76-198.64 22.58z" opacity=".02"/><path fill="#020202" d="M241.12 91.5c0 24.34 17.92 44.28 43.2 44.28h90.8c37.6 0 65.22-30.2 65.22-67.15 0-36.66-199.22-1.47-199.22 22.87z" opacity=".02"/><path fill="#020202" d="M241.12 91.2c0 24.35 17.33 43.7 42.6 44.58 17.34.6 70.23 0 90.8 0 37.62 0 65.24-30.2 65.24-67.15 0-36.66-198.64-1.76-198.64 22.58z" opacity=".02"/><path fill="#E9E9E9" d="M284.9 45.46c-24.98 0-45.25 20.23-45.25 45.16 0 24.93 20.27 45.16 45.25 45.16h90.5c37.32 0 67.88-30.2 67.88-67.74C443.28 30.5 413.02.3 375.4.3c-32.32 0-59.35 22.58-66.1 52.5-7.06-4.7-15.58-7.34-24.4-7.34z"/><path fill="#020202" d="M242 105c6.17 17.88 22.92 30.5 42.9 30.5h89.04c-36.74-.9-66.4-30.8-66.4-67.75 0-5.58.57-10.56 1.75-15.55L242 105zM3.7 207.05c0 71.26 53.76 128.74 126.64 128.74h175.72c48.48 0 83.45-38.73 83.45-85.65S4 136.08 3.7 207.05z" opacity=".02"/><path fill="#020202" d="M389.8 248.7c0-46.93-385.52-114.1-385.52-43.12 0 71.27 53.77 128.75 126.65 128.75h175.7c48.5 0 83.17-38.7 83.17-85.64z" opacity=".02"/><path fill="#020202" d="M3.7 204.4c0 71.27 53.76 128.75 126.64 128.75h175.72c48.48 0 83.45-38.7 83.45-85.63 0-46.92-385.5-114.08-385.8-43.1z" opacity=".02"/><path fill="#020202" d="M4.28 204.4c0 71.27 53.77 128.75 126.65 128.75h175.42c48.5 0 83.45-38.7 83.45-85.63 0-46.92-385.23-113.8-385.52-43.1z" opacity=".02"/><path fill="#020202" d="M6.63 203.24c0 71.26 52.3 129.03 125.18 129.03h175.74c48.48 0 83.45-38.7 83.45-85.63 0-46.92-384.07-114.08-384.36-43.4z" opacity=".02"/><path fill="#020202" d="M390.68 247.23c0-46.93-384.64-114.97-384.64-44 0 71.27 52.9 129.63 125.77 129.63h175.74c48.2 0 83.15-38.7 83.15-85.63z" opacity=".02"/><path fill="#020202" d="M390.68 246.35c0-46.93-383.76-114.38-383.76-43.4 0 71.26 52.9 129.62 125.77 129.62 39.65 0 142.2.88 175.7 0 48.5-1.76 82.27-39 82.27-86.22z" opacity=".02"/><path fill="#EDF2F5" d="M259.04 171.86C245.82 114.08 194.1 70.38 131.5 70.38 58.94 70.38.47 129.33.47 201.48c0 72.43 59.06 130.8 131.05 130.8h174.85c48.2 0 87.27-39.3 87.27-87.1s-39.08-87.1-87.27-87.1c-17.63 0-33.8 5.27-47.3 13.78z"/><path fill="#020202" d="M259.04 170.98c2.35 9.67 3.53 19.65 3.53 30.2 0 71.56-57.3 129.33-128.12 130.8h171.9c38.5 0 70.82-24.63 82.57-58.95L259.04 170.98z" opacity=".02"/></g></g></svg>