<?xml version="1.0" encoding="UTF-8"?>
<svg width="60px" height="60px" viewBox="0 0 60 60" version="1.1" xmlns="http://www.w3.org/2000/svg" xmlns:xlink="http://www.w3.org/1999/xlink">
    <!-- Generator: Sketch 46.1 (44463) - http://www.bohemiancoding.com/sketch -->
    <title>numilli-icon</title>
    <desc>Created with Sketch.</desc>
    <defs>
        <linearGradient x1="0%" y1="28.4%" x2="100%" y2="100%" id="linearGradient-1">
            <stop stop-color="#0072A2" offset="0%"></stop>
            <stop stop-color="#002E7B" offset="100%"></stop>
        </linearGradient>
    </defs>
    <g id="Page-1" stroke="none" stroke-width="1" fill="none" fill-rule="evenodd">
        <g id="numilli-icon">
            <rect id="Rectangle-path" fill="url(#linearGradient-1)" fill-rule="nonzero" x="0" y="0" width="60" height="60" rx="10"></rect>
            <path d="M26.2827318,38.9814831 C26.186333,39.0386572 26.0920519,39.097994 26,39.1594026 L28.7755149,42 L31.2249447,42 L34,39.1594026 C32.9158073,38.4358981 31.5215006,38 29.9998851,38 C29.325273,38 28.675715,38.0857067 28.0670791,38.2441911 L29.6676372,37.5557344 L30,36.4664892 L25.4725704,32.9373251 L25.4725704,26.4958507 L22.2025264,25.0872407 L22.2025264,20.6229631 L27.7972399,23.2150557 L27.7972399,31.9196134 L30.1630629,33.6516343 L30.3611052,34 L30.4999969,33.8983039 L30.6389068,34 L30.8369824,33.6515641 L33.2023988,31.9196134 L33.2023988,23.2150557 L38.7972507,20.6229631 L38.7972507,25.0873375 L35.5274391,26.4958609 L35.5274391,32.9371409 L31,36.466472 L31.3323728,37.5556055 L34.6901738,39 L39,36.0664638 L39,31.4566885 L42,29.2600418 L42,16.5952572 L41.083627,16 L30.7251309,20.7999921 L30.499968,21.1548012 L30.2747762,20.7999921 L19.9166931,16 L19,16.5952572 L19,29.2600418 L22,31.4568413 L22,36.0665076 L26.2827318,38.9814831 Z M45.7521694,12 L47.2011162,12.9338371 L49,35.2213776 L33.2246576,48 L27.773841,48 L12,35.2213776 L13.7987683,12.9338371 L15.2474842,12 L45.7521694,12 Z" id="Combined-Shape-Copy" fill="#FFFFFF"></path>
        </g>
    </g>
</svg>