<?xml version="1.0" encoding="UTF-8"?>
<svg width="192px" height="192px" viewBox="0 0 192 192" version="1.1" xmlns="http://www.w3.org/2000/svg" xmlns:xlink="http://www.w3.org/1999/xlink">
    <!-- Generator: Sketch 44.1 (41455) - http://www.bohemiancoding.com/sketch -->
    <title>suggestv-icon</title>
    <desc>Created with Sketch.</desc>
    <defs>
        <linearGradient x1="87.774787%" y1="87.8836918%" x2="12.2089098%" y2="8.15567172%" id="linearGradient-1">
            <stop stop-color="#056186" offset="0%"></stop>
            <stop stop-color="#00A4E6" offset="100%"></stop>
        </linearGradient>
        <rect id="path-2" x="0" y="0" width="192" height="192" rx="27"></rect>
        <path d="M153.235714,88.4547208 C147.528571,88.4547208 142.828571,92.1288889 141.15,97.1391182 L121.342857,95.1350265 C121.175,87.2856673 117.482143,80.4383539 111.607143,76.0961552 L124.867857,53.7171311 C126.042857,54.0511464 127.385714,54.3851617 128.896429,54.3851617 C135.946429,54.3851617 141.653571,48.7069018 141.653571,41.6925808 C141.653571,34.6782598 135.946429,29 128.896429,29 C121.846429,29 116.139286,34.6782598 116.139286,41.6925808 C116.139286,45.366749 117.65,48.5398942 120.167857,50.8780012 L106.907143,73.2570253 C103.885714,71.9209641 100.528571,71.0859259 96.8357143,71.0859259 C90.7928571,71.0859259 85.4214286,73.2570253 81.0571429,76.7641858 L69.6428571,66.0756966 C70.8178571,64.2386126 71.4892857,61.9005056 71.4892857,59.5623986 C71.4892857,52.5480776 65.7821429,46.8698178 58.7321429,46.8698178 C51.6821429,46.8698178 45.975,52.5480776 45.975,59.5623986 C45.975,66.5767196 51.6821429,72.2549794 58.7321429,72.2549794 C61.4178571,72.2549794 63.7678571,71.4199412 65.95,70.0838801 L77.3642857,80.7723692 C74.3428571,84.7805526 72.4964286,89.9577895 72.4964286,95.3020341 C72.4964286,96.9721105 72.6642857,98.8091946 73,100.312263 L49.6678571,108.161623 C47.4857143,104.487454 43.4571429,101.98234 38.7571429,101.98234 C31.7071429,101.98234 26,107.6606 26,114.674921 C26,121.689242 31.7071429,127.367501 38.7571429,127.367501 C45.8071429,127.367501 51.5142857,121.689242 51.5142857,114.674921 L51.5142857,113.338859 L74.8464286,105.4895 C78.7071429,113.839882 87.1,119.518142 97.0035714,119.518142 C98.0107143,119.518142 98.85,119.518142 99.6892857,119.351135 L104.053571,138.557014 C99.6892857,140.561105 96.8357143,144.903304 96.8357143,149.913533 C96.8357143,156.927854 102.542857,162.606114 109.592857,162.606114 C116.642857,162.606114 122.35,156.927854 122.35,149.913533 C122.35,142.899212 116.642857,137.220952 109.592857,137.220952 C109.592857,137.220952 109.592857,137.220952 109.425,137.220952 L105.060714,118.015073 C112.95,115.175944 118.992857,108.495638 120.839286,100.145256 L140.646429,102.149347 C141.317857,108.495638 146.689286,113.338859 153.235714,113.338859 C160.285714,113.338859 165.992857,107.6606 165.992857,100.646279 C165.825,94.1329806 160.117857,88.4547208 153.235714,88.4547208 Z" id="path-4"></path>
        <filter x="-2.1%" y="-2.2%" width="104.3%" height="104.5%" filterUnits="objectBoundingBox" id="filter-5">
            <feOffset dx="0" dy="0" in="SourceAlpha" result="shadowOffsetOuter1"></feOffset>
            <feGaussianBlur stdDeviation="1" in="shadowOffsetOuter1" result="shadowBlurOuter1"></feGaussianBlur>
            <feColorMatrix values="0 0 0 0 0   0 0 0 0 0   0 0 0 0 0  0 0 0 0.12 0" type="matrix" in="shadowBlurOuter1"></feColorMatrix>
        </filter>
    </defs>
    <g id="Page-1" stroke="none" stroke-width="1" fill="none" fill-rule="evenodd">
        <g id="suggestv-icon">
            <mask id="mask-3" fill="white">
                <use xlink:href="#path-2"></use>
            </mask>
            <use id="Rectangle-13-Copy" fill="url(#linearGradient-1)" xlink:href="#path-2"></use>
            <g id="Shape" mask="url(#mask-3)" fill-rule="nonzero">
                <use fill="black" fill-opacity="1" filter="url(#filter-5)" xlink:href="#path-4"></use>
                <use fill="#FFFFFF" fill-rule="evenodd" xlink:href="#path-4"></use>
            </g>
        </g>
    </g>
</svg>